<svg width="586" height="542" viewBox="0 0 586 542" fill="none" xmlns="http://www.w3.org/2000/svg">
<path d="M150.628 323.32H66.0928V285.157L150.628 184.66H191.083V287.325H212.046V323.32H191.083V354.55H150.628V323.32ZM150.628 287.325V234.756L105.95 287.325H150.628Z" fill="#5048E5"/>
<path d="M226.508 270.348C226.508 238.59 232.222 216.362 243.651 203.665C255.08 190.967 272.497 184.623 295.901 184.632C307.135 184.632 316.364 186.021 323.588 188.8C330.151 191.165 336.16 194.848 341.245 199.622C345.532 203.715 349.163 208.443 352.012 213.64C354.831 219.066 356.955 224.825 358.333 230.783C361.474 243.509 363.041 256.573 363.001 269.681C363.001 299.985 357.875 322.162 347.622 336.212C337.369 350.262 319.712 357.291 294.65 357.301C280.591 357.301 269.232 355.059 260.572 350.577C251.843 346.021 244.49 339.215 239.275 330.864C235.246 324.714 232.111 316.3 229.87 305.621C227.543 294.01 226.417 282.19 226.508 270.348V270.348ZM272.547 270.459C272.547 291.761 274.423 306.288 278.174 314.04C281.925 321.792 287.375 325.686 294.525 325.723C296.794 325.749 299.046 325.323 301.149 324.472C303.252 323.621 305.166 322.36 306.778 320.764C310.242 317.457 312.789 312.234 314.419 305.093C316.049 297.952 316.864 286.839 316.864 271.751C316.864 249.579 314.984 234.673 311.224 227.032C307.464 219.391 301.823 215.575 294.303 215.584C286.634 215.584 281.077 219.479 277.632 227.268C274.187 235.057 272.492 249.454 272.547 270.459Z" fill="#5048E5"/>
<path d="M461.9 323.32H377.365V285.158L461.9 184.66H502.355V287.325H523.388V323.32H502.355V354.55H461.9V323.32ZM461.9 287.325V234.756L417.236 287.325H461.9Z" fill="#5048E5"/>
<g opacity="0.3">
<path d="M224.703 126.02C224.703 126.535 224.55 127.037 224.264 127.465C223.978 127.892 223.571 128.225 223.096 128.422C222.62 128.618 222.097 128.668 221.593 128.567C221.088 128.466 220.626 128.217 220.263 127.852C219.9 127.487 219.654 127.023 219.555 126.518C219.456 126.014 219.51 125.491 219.709 125.016C219.907 124.542 220.242 124.137 220.672 123.853C221.101 123.57 221.604 123.42 222.119 123.422C222.459 123.422 222.796 123.49 223.111 123.62C223.425 123.751 223.711 123.943 223.951 124.184C224.191 124.425 224.381 124.712 224.51 125.027C224.639 125.342 224.704 125.68 224.703 126.02V126.02Z" fill="#5048E5"/>
<path d="M46.8387 225.809C47.8515 225.809 48.6725 224.988 48.6725 223.975C48.6725 222.963 47.8515 222.142 46.8387 222.142C45.8259 222.142 45.0049 222.963 45.0049 223.975C45.0049 224.988 45.8259 225.809 46.8387 225.809Z" fill="#5048E5"/>
<path d="M349.804 493.613C351.254 493.613 352.43 492.437 352.43 490.987C352.43 489.537 351.254 488.362 349.804 488.362C348.354 488.362 347.179 489.537 347.179 490.987C347.179 492.437 348.354 493.613 349.804 493.613Z" fill="#5048E5"/>
<path d="M412.945 386.78C413.958 386.78 414.779 385.959 414.779 384.947C414.779 383.934 413.958 383.113 412.945 383.113C411.932 383.113 411.111 383.934 411.111 384.947C411.111 385.959 411.932 386.78 412.945 386.78Z" fill="#5048E5"/>
<path d="M534.739 56.5583C534.739 56.921 534.631 57.2755 534.43 57.5771C534.228 57.8786 533.942 58.1137 533.607 58.2525C533.272 58.3913 532.903 58.4276 532.547 58.3568C532.192 58.2861 531.865 58.1114 531.608 57.855C531.352 57.5985 531.177 57.2718 531.107 56.916C531.036 56.5603 531.072 56.1916 531.211 55.8565C531.35 55.5214 531.585 55.235 531.886 55.0335C532.188 54.832 532.542 54.7245 532.905 54.7245C533.391 54.7245 533.858 54.9177 534.202 55.2616C534.546 55.6055 534.739 56.0719 534.739 56.5583V56.5583Z" fill="#5048E5"/>
<path d="M185.458 19.5767C185.458 19.9394 185.35 20.294 185.149 20.5955C184.947 20.8971 184.661 21.1321 184.326 21.2709C183.991 21.4097 183.622 21.446 183.266 21.3753C182.91 21.3045 182.584 21.1299 182.327 20.8734C182.071 20.6169 181.896 20.2902 181.825 19.9345C181.755 19.5788 181.791 19.21 181.93 18.875C182.068 18.5399 182.303 18.2535 182.605 18.052C182.907 17.8505 183.261 17.7429 183.624 17.7429C184.109 17.7466 184.573 17.9409 184.917 18.284C185.26 18.6272 185.454 19.0915 185.458 19.5767V19.5767Z" fill="#5048E5"/>
<path d="M331.258 115.795C332.27 115.795 333.091 114.974 333.091 113.962C333.091 112.949 332.27 112.128 331.258 112.128C330.245 112.128 329.424 112.949 329.424 113.962C329.424 114.974 330.245 115.795 331.258 115.795Z" fill="#5048E5"/>
</g>
<path d="M141.669 115.809C158.479 115.809 172.107 102.182 172.107 85.3711C172.107 68.5605 158.479 54.9329 141.669 54.9329C124.858 54.9329 111.23 68.5605 111.23 85.3711C111.23 102.182 124.858 115.809 141.669 115.809Z" fill="#5048E5"/>
<path opacity="0.7" d="M141.669 115.809C158.479 115.809 172.107 102.182 172.107 85.3711C172.107 68.5605 158.479 54.9329 141.669 54.9329C124.858 54.9329 111.23 68.5605 111.23 85.3711C111.23 102.182 124.858 115.809 141.669 115.809Z" fill="white"/>
<path opacity="0.2" d="M131.18 62.4069C127.035 62.3942 122.931 63.231 119.121 64.8658C114.44 70.0114 111.661 76.6049 111.247 83.5493C110.834 90.4937 112.81 97.3704 116.848 103.035C120.886 108.7 126.742 112.812 133.442 114.686C140.141 116.56 147.28 116.084 153.672 113.336V113.336C157.634 108.969 160.244 103.546 161.183 97.7246C162.123 91.9032 161.352 85.9342 158.964 80.5425C156.576 75.1508 152.675 70.5682 147.733 67.3513C142.791 64.1345 137.021 62.4216 131.124 62.4208L131.18 62.4069Z" fill="#5048E5"/>
<path opacity="0.2" d="M128.151 70.4507C128.151 71.0002 127.988 71.5374 127.682 71.9944C127.377 72.4513 126.943 72.8074 126.436 73.0177C125.928 73.228 125.369 73.283 124.83 73.1758C124.291 73.0686 123.796 72.804 123.408 72.4154C123.019 72.0268 122.754 71.5317 122.647 70.9928C122.54 70.4538 122.595 69.8951 122.805 69.3874C123.016 68.8797 123.372 68.4458 123.829 68.1405C124.286 67.8352 124.823 67.6722 125.372 67.6722C126.109 67.6722 126.816 67.965 127.337 68.486C127.858 69.0071 128.151 69.7138 128.151 70.4507Z" fill="#5048E5"/>
<path opacity="0.2" d="M160.881 67.6723C160.881 68.2218 160.718 68.759 160.413 69.2159C160.108 69.6728 159.674 70.029 159.166 70.2392C158.658 70.4495 158.1 70.5046 157.561 70.3974C157.022 70.2902 156.527 70.0255 156.138 69.6369C155.749 69.2484 155.485 68.7533 155.378 68.2143C155.27 67.6754 155.325 67.1167 155.536 66.609C155.746 66.1013 156.102 65.6674 156.559 65.3621C157.016 65.0568 157.553 64.8938 158.103 64.8938C158.84 64.8938 159.546 65.1865 160.067 65.7076C160.588 66.2287 160.881 66.9354 160.881 67.6723Z" fill="#5048E5"/>
<path opacity="0.2" d="M155.324 87.5104C155.324 88.4117 155.057 89.2927 154.556 90.042C154.056 90.7913 153.344 91.3754 152.511 91.7203C151.679 92.0652 150.763 92.1554 149.879 91.9796C148.995 91.8038 148.183 91.3698 147.546 90.7325C146.908 90.0952 146.474 89.2833 146.298 88.3994C146.123 87.5155 146.213 86.5993 146.558 85.7667C146.903 84.934 147.487 84.2224 148.236 83.7217C148.985 83.221 149.866 82.9537 150.768 82.9537C151.976 82.9537 153.135 83.4338 153.99 84.2884C154.844 85.1429 155.324 86.3019 155.324 87.5104V87.5104Z" fill="#5048E5"/>
<path opacity="0.2" d="M140.848 100.5C140.848 101.703 140.492 102.88 139.823 103.88C139.154 104.881 138.204 105.661 137.092 106.122C135.98 106.582 134.757 106.703 133.576 106.468C132.396 106.233 131.312 105.654 130.461 104.803C129.61 103.952 129.03 102.867 128.796 101.687C128.561 100.507 128.681 99.2832 129.142 98.1713C129.602 97.0595 130.382 96.1091 131.383 95.4405C132.384 94.7719 133.56 94.415 134.764 94.415C136.377 94.415 137.925 95.0561 139.066 96.1972C140.207 97.3384 140.848 98.8861 140.848 100.5V100.5Z" fill="#5048E5"/>
<path d="M502.411 452.528C505.8 438.168 496.906 423.779 482.547 420.39C468.187 417.001 453.798 425.894 450.409 440.254C447.02 454.614 455.913 469.002 470.273 472.391C484.633 475.781 499.021 466.887 502.411 452.528Z" fill="#5048E5"/>
<path opacity="0.3" d="M502.411 452.528C505.8 438.168 496.906 423.779 482.547 420.39C468.187 417.001 453.798 425.894 450.409 440.254C447.02 454.614 455.913 469.002 470.273 472.391C484.633 475.781 499.021 466.887 502.411 452.528Z" fill="white"/>
<path opacity="0.4" d="M493.284 425.707C487.361 423.919 481.002 424.244 475.293 426.624C469.583 429.005 464.877 433.294 461.979 438.759C459.081 444.224 458.17 450.526 459.402 456.588C460.635 462.65 463.934 468.096 468.736 471.996C471.227 472.753 473.815 473.136 476.418 473.135C481.934 473.134 487.313 471.426 491.819 468.245C496.325 465.065 499.735 460.567 501.583 455.371C503.431 450.174 503.625 444.533 502.139 439.222C500.653 433.911 497.56 429.19 493.284 425.707V425.707Z" fill="#5048E5"/>
<path d="M450.912 454.408C422.391 467.828 443.66 478.178 483.851 463.73C521.069 450.352 535.253 433.486 501.911 438.724C503.703 445.739 457.094 463.897 450.912 454.408Z" fill="#5048E5"/>
<path opacity="0.2" d="M492.964 184.66C455.608 209.903 407.248 243.244 393.898 323.32H391.05C404.039 244.133 450.634 210 488.005 184.66H492.964Z" fill="black"/>
<path d="M299.721 435.334C276.104 435.334 252.751 424.679 241.373 407.286C234.357 396.533 226.202 374.013 250.486 343.964L252.64 345.715C235.469 366.97 232.301 388.295 243.707 405.771C257.599 427.027 290.371 437.724 318.351 430.111C347.011 422.317 364.404 397.394 366.085 361.732C371.822 239.743 436.63 202.164 483.948 174.727C513.358 157.681 534.599 145.372 529.932 119.38C529.279 115.782 527.848 113.295 525.528 111.767C519.485 107.78 507.676 110.544 494.006 113.726C467.18 119.977 430.448 128.535 408.568 91.3171L410.971 89.9279C431.81 125.395 465.943 117.435 493.381 111.044C507.676 107.724 520.013 104.848 527.056 109.474C530.043 111.433 531.877 114.531 532.613 118.921C537.628 146.817 514.553 160.209 485.309 177.158C438.534 204.276 374.49 241.41 368.822 361.927C367.071 398.881 348.928 424.734 319.031 432.861C312.733 434.539 306.239 435.37 299.721 435.334Z" fill="#5048E5"/>
<path opacity="0.2" d="M299.721 435.334C276.104 435.334 252.751 424.679 241.373 407.286C234.357 396.533 226.202 374.013 250.486 343.964L252.64 345.715C235.469 366.97 232.301 388.295 243.707 405.771C257.599 427.027 290.371 437.724 318.351 430.111C347.011 422.317 364.404 397.394 366.085 361.732C371.822 239.743 436.63 202.164 483.948 174.727C513.358 157.681 534.599 145.372 529.932 119.38C529.279 115.782 527.848 113.295 525.528 111.767C519.485 107.78 507.676 110.544 494.006 113.726C467.18 119.977 430.448 128.535 408.568 91.3171L410.971 89.9279C431.81 125.395 465.943 117.435 493.381 111.044C507.676 107.724 520.013 104.848 527.056 109.474C530.043 111.433 531.877 114.531 532.613 118.921C537.628 146.817 514.553 160.209 485.309 177.158C438.534 204.276 374.49 241.41 368.822 361.927C367.071 398.881 348.928 424.734 319.031 432.861C312.733 434.539 306.239 435.37 299.721 435.334Z" fill="white"/>
<path d="M379.963 58.4755C386.364 58.5124 392.724 59.5099 398.829 61.4345C398.829 61.4345 414.11 87.5105 415.916 93.4843C415.277 99.3746 405.344 109.03 405.344 109.03L379.963 58.4755Z" fill="#5048E5"/>
<path opacity="0.3" d="M379.963 58.4755C386.364 58.5124 392.724 59.5099 398.829 61.4345C398.829 61.4345 414.11 87.5105 415.916 93.4843C415.277 99.3746 405.344 109.03 405.344 109.03L379.963 58.4755Z" fill="white"/>
<path d="M425.226 185.077C419.341 177.881 413.974 170.277 409.166 162.321C407.999 160.311 406.892 158.264 405.846 156.181C405.248 155 404.679 153.819 404.123 152.624C403.394 151.462 402.828 150.204 402.442 148.887C400.775 131.285 406.804 118.324 401.053 104.195L378.158 113.142C378.158 113.142 380.103 138.315 384.549 153.43C387.327 162.78 393.551 170.865 399.566 178.353C401.442 180.687 403.248 183.09 405.123 185.438C406.999 187.786 408.888 189.689 410.68 191.898C413.389 195.246 414.278 198.455 412.236 202.401L411.889 203.026C411.305 204.054 414.028 205.221 415.751 203.026C418.529 199.442 418.141 199.664 420.558 196.607C422.03 194.76 423.711 192.745 425.17 191.051C425.874 190.217 426.264 189.164 426.274 188.074C426.285 186.983 425.914 185.923 425.226 185.077V185.077Z" fill="#5048E5"/>
<path opacity="0.7" d="M425.226 185.077C419.341 177.881 413.974 170.277 409.166 162.321C407.999 160.311 406.892 158.264 405.846 156.181C405.248 155 404.679 153.819 404.123 152.624C403.394 151.462 402.828 150.204 402.442 148.887C400.775 131.285 406.804 118.324 401.053 104.195L378.158 113.142C378.158 113.142 380.103 138.315 384.549 153.43C387.327 162.78 393.551 170.865 399.566 178.353C401.442 180.687 403.248 183.09 405.123 185.438C406.999 187.786 408.888 189.689 410.68 191.898C413.389 195.246 414.278 198.455 412.236 202.401L411.889 203.026C411.305 204.054 414.028 205.221 415.751 203.026C418.529 199.442 418.141 199.664 420.558 196.607C422.03 194.76 423.711 192.745 425.17 191.051C425.874 190.217 426.264 189.164 426.274 188.074C426.285 186.983 425.914 185.923 425.226 185.077V185.077Z" fill="white"/>
<path opacity="0.3" d="M419.626 177.839C415.993 181.733 411.96 185.235 407.595 188.286C408.192 188.953 408.776 189.675 409.373 190.314C413.744 187.362 417.713 183.855 421.181 179.881L419.626 177.839Z" fill="#5048E5"/>
<path opacity="0.3" d="M425.225 185.077L425.058 184.882C423.989 186.109 423.367 187.661 423.294 189.286C423.204 190.401 423.385 191.521 423.822 192.551L425.141 190.981C425.831 190.156 426.216 189.119 426.231 188.044C426.246 186.969 425.891 185.921 425.225 185.077V185.077Z" fill="#5048E5"/>
<path d="M374.517 75.1463C372.035 78.8627 369.058 82.2232 365.668 85.1349C363.788 86.7553 361.727 88.1537 359.527 89.3027C358.371 89.8949 357.173 90.401 355.943 90.8169L354.998 91.1226L354.693 91.2059L354.04 91.3865C353.638 91.4819 353.229 91.5469 352.817 91.581C351.645 91.6706 350.466 91.5626 349.33 91.2615C347.897 90.8548 346.524 90.2616 345.246 89.4972C344.217 88.8959 343.22 88.2421 342.259 87.5383C340.522 86.2464 338.861 84.8548 337.286 83.3706C334.247 80.4913 331.458 77.3589 328.95 74.0071C328.467 73.3542 328.227 72.5531 328.272 71.7422C328.316 70.9312 328.643 70.1613 329.194 69.5652C329.746 68.9691 330.488 68.5842 331.293 68.4771C332.099 68.3699 332.916 68.5471 333.604 68.9781H333.715C336.994 71.0619 340.3 73.257 343.523 75.2158C345.163 76.1744 346.746 77.1468 348.316 77.897C349.033 78.2722 349.77 78.6062 350.525 78.8973C350.995 79.1048 351.499 79.2271 352.012 79.2585C352.095 79.2585 352.011 79.1612 351.497 79.1751C351.336 79.1654 351.173 79.1654 351.011 79.1751L350.706 79.2446L351.164 79.0084C351.781 78.6763 352.38 78.3099 352.956 77.9109C354.199 77.0344 355.362 76.0488 356.429 74.9657C358.856 72.4223 361.129 69.7363 363.237 66.922C364.391 65.6304 365.986 64.8168 367.71 64.6408C369.433 64.4648 371.16 64.9392 372.552 65.9708C373.944 67.0024 374.9 68.5168 375.232 70.2169C375.565 71.917 375.251 73.6801 374.35 75.1602L374.517 75.1463Z" fill="#5048E5"/>
<path opacity="0.7" d="M374.517 75.1463C372.035 78.8627 369.058 82.2232 365.668 85.1349C363.788 86.7553 361.727 88.1537 359.527 89.3027C358.371 89.8949 357.173 90.401 355.943 90.8169L354.998 91.1226L354.693 91.2059L354.04 91.3865C353.638 91.4819 353.229 91.5469 352.817 91.581C351.645 91.6706 350.466 91.5626 349.33 91.2615C347.897 90.8548 346.524 90.2616 345.246 89.4972C344.217 88.8959 343.22 88.2421 342.259 87.5383C340.522 86.2464 338.861 84.8548 337.286 83.3706C334.247 80.4913 331.458 77.3589 328.95 74.0071C328.467 73.3542 328.227 72.5531 328.272 71.7422C328.316 70.9312 328.643 70.1613 329.194 69.5652C329.746 68.9691 330.488 68.5842 331.293 68.4771C332.099 68.3699 332.916 68.5471 333.604 68.9781H333.715C336.994 71.0619 340.3 73.257 343.523 75.2158C345.163 76.1744 346.746 77.1468 348.316 77.897C349.033 78.2722 349.77 78.6062 350.525 78.8973C350.995 79.1048 351.499 79.2271 352.012 79.2585C352.095 79.2585 352.011 79.1612 351.497 79.1751C351.336 79.1654 351.173 79.1654 351.011 79.1751L350.706 79.2446L351.164 79.0084C351.781 78.6763 352.38 78.3099 352.956 77.9109C354.199 77.0344 355.362 76.0488 356.429 74.9657C358.856 72.4223 361.129 69.7363 363.237 66.922C364.391 65.6304 365.986 64.8168 367.71 64.6408C369.433 64.4648 371.16 64.9392 372.552 65.9708C373.944 67.0024 374.9 68.5168 375.232 70.2169C375.565 71.917 375.251 73.6801 374.35 75.1602L374.517 75.1463Z" fill="white"/>
<path d="M323.742 66.005L325.367 68.7835C325.367 68.7835 326.604 72.4233 329.09 73.0902L335.842 70.9091L335.495 70.3395C334.633 69.0336 334.731 66.4913 335.022 64.3796C335.314 62.268 334.231 62.1985 333.425 62.7264C332.854 63.3833 332.453 64.1705 332.258 65.0187C331.926 64.5599 331.559 64.1279 331.16 63.7267L329.104 61.6706C328.673 61.249 328.098 61.0061 327.495 60.9907C326.892 60.9752 326.306 61.1883 325.853 61.5873L324.186 63.0737C323.791 63.4395 323.531 63.9289 323.451 64.4615C323.37 64.9942 323.473 65.5384 323.742 66.005V66.005Z" fill="#5048E5"/>
<path opacity="0.7" d="M323.742 66.005L325.367 68.7835C325.367 68.7835 326.604 72.4233 329.09 73.0902L335.842 70.9091L335.495 70.3395C334.633 69.0336 334.731 66.4913 335.022 64.3796C335.314 62.268 334.231 62.1985 333.425 62.7264C332.854 63.3833 332.453 64.1705 332.258 65.0187C331.926 64.5599 331.559 64.1279 331.16 63.7267L329.104 61.6706C328.673 61.249 328.098 61.0061 327.495 60.9907C326.892 60.9752 326.306 61.1883 325.853 61.5873L324.186 63.0737C323.791 63.4395 323.531 63.9289 323.451 64.4615C323.37 64.9942 323.473 65.5384 323.742 66.005V66.005Z" fill="white"/>
<path d="M386.784 56.0026C379.295 57.9876 372.121 61.0132 365.473 64.9909C364.436 65.6401 363.622 66.5908 363.14 67.7156C362.658 68.8404 362.532 70.0856 362.778 71.2842C365.459 84.3986 371.558 101.959 378.143 113.142L408.859 100.43C409.067 95.0124 401.607 77.4802 394.008 60.5315C392.646 57.4891 390.021 55.2246 386.784 56.0026Z" fill="#5048E5"/>
<path opacity="0.8" d="M386.784 56.0026C379.295 57.9876 372.121 61.0132 365.473 64.9909C364.436 65.6401 363.622 66.5908 363.14 67.7156C362.658 68.8404 362.532 70.0856 362.778 71.2842C365.459 84.3986 371.558 101.959 378.143 113.142L408.859 100.43C409.067 95.0124 401.607 77.4802 394.008 60.5315C392.646 57.4891 390.021 55.2246 386.784 56.0026Z" fill="white"/>
<path opacity="0.3" d="M398.775 71.2703L392.676 69.2281C394.065 72.7985 398.969 77.3135 402.4 79.967C401.289 77.1885 400.053 74.2711 398.775 71.2703Z" fill="#5048E5"/>
<path d="M384.769 42.2492C382.227 37.4147 376.739 34.9835 370.154 35.5253C364.597 35.9976 359.68 41.6657 360.263 44.7221C360.846 47.7784 365.514 49.0843 366.403 50.1401L362.555 52.9186C362.099 53.2476 361.715 53.6655 361.425 54.147C361.135 54.6286 360.945 55.1639 360.867 55.7206C360.789 56.2774 360.825 56.8442 360.972 57.3869C361.118 57.9296 361.374 58.4369 361.722 58.8784C363.347 60.9345 365.487 63.0461 366.723 64.6021C377.365 64.3242 385.241 60.2676 388.089 56.3639C387.02 51.4182 387.242 47.056 384.769 42.2492Z" fill="#5048E5"/>
<path opacity="0.8" d="M384.769 42.2492C382.227 37.4147 376.739 34.9835 370.154 35.5253C364.597 35.9976 359.68 41.6657 360.263 44.7221C360.846 47.7784 365.514 49.0843 366.403 50.1401L362.555 52.9186C362.099 53.2476 361.715 53.6655 361.425 54.147C361.135 54.6286 360.945 55.1639 360.867 55.7206C360.789 56.2774 360.825 56.8442 360.972 57.3869C361.118 57.9296 361.374 58.4369 361.722 58.8784C363.347 60.9345 365.487 63.0461 366.723 64.6021C377.365 64.3242 385.241 60.2676 388.089 56.3639C387.02 51.4182 387.242 47.056 384.769 42.2492Z" fill="white"/>
<path d="M379.547 45.2499C380.302 47.1873 380.467 49.3052 380.019 51.3359C379.571 53.3666 378.531 55.2189 377.03 56.6587C375.53 58.0984 373.636 59.061 371.588 59.4247C369.541 59.7884 367.432 59.537 365.527 58.7022C363.622 57.8673 362.008 56.4866 360.888 54.7345C359.768 52.9823 359.193 50.9375 359.235 48.8584C359.276 46.7793 359.934 44.7593 361.124 43.0537C362.313 41.3481 363.982 40.0335 365.919 39.2761C368.518 38.2634 371.413 38.3237 373.969 39.4437C376.524 40.5637 378.53 42.6519 379.547 45.2499V45.2499Z" fill="#263238"/>
<path d="M469.75 170.448C469.597 165.877 469.389 166.28 469.263 162.432C469.18 160.07 469.166 157.445 469.152 155.18C469.148 154.105 468.772 153.064 468.088 152.234C467.405 151.404 466.456 150.835 465.401 150.624C463.568 150.249 461.72 149.901 459.844 149.512C457.441 148.998 455.065 148.443 452.718 147.762C450.884 147.234 449.078 146.65 447.286 145.997C445.494 145.345 443.479 144.608 441.618 143.747C439.423 142.816 437.255 141.816 435.116 140.774C432.713 139.635 430.337 138.44 427.961 137.231C418.82 122.103 418.626 112.128 408.818 100.43L387.757 109.961C387.757 109.961 403.233 137.412 413.763 149.054C419.834 155.75 429.351 158.778 437.839 160.973C443.965 162.543 450.175 163.752 456.385 164.905C458.802 165.35 461.428 165.516 463.512 166.961C465.054 168.143 466.111 169.847 466.485 171.754C466.578 172.143 466.661 172.532 466.735 172.921C466.999 174.088 469.847 173.199 469.75 170.448Z" fill="#5048E5"/>
<path opacity="0.8" d="M469.75 170.448C469.597 165.877 469.389 166.28 469.263 162.432C469.18 160.07 469.166 157.445 469.152 155.18C469.148 154.105 468.772 153.064 468.088 152.234C467.405 151.404 466.456 150.835 465.401 150.624C463.568 150.249 461.72 149.901 459.844 149.512C457.441 148.998 455.065 148.443 452.718 147.762C450.884 147.234 449.078 146.65 447.286 145.997C445.494 145.345 443.479 144.608 441.618 143.747C439.423 142.816 437.255 141.816 435.116 140.774C432.713 139.635 430.337 138.44 427.961 137.231C418.82 122.103 418.626 112.128 408.818 100.43L387.757 109.961C387.757 109.961 403.233 137.412 413.763 149.054C419.834 155.75 429.351 158.778 437.839 160.973C443.965 162.543 450.175 163.752 456.385 164.905C458.802 165.35 461.428 165.516 463.512 166.961C465.054 168.143 466.111 169.847 466.485 171.754C466.578 172.143 466.661 172.532 466.735 172.921C466.999 174.088 469.847 173.199 469.75 170.448Z" fill="white"/>
<path opacity="0.3" d="M459.067 149.332C458.233 149.151 457.4 148.97 456.553 148.762C456.622 153.569 454.371 161.849 453.552 164.363L456.191 164.863C457.921 159.859 458.891 154.624 459.067 149.332V149.332Z" fill="#5048E5"/>
<path opacity="0.3" d="M469.207 155.18C469.203 154.107 468.829 153.068 468.149 152.238C467.468 151.408 466.522 150.838 465.47 150.624L464.081 150.36C464.304 151.939 465.112 153.377 466.346 154.389C467.139 155.122 468.089 155.663 469.124 155.972C469.207 155.722 469.207 155.444 469.207 155.18Z" fill="#5048E5"/>
<path d="M377.588 45.3333C378.144 47.4449 375.782 49.6538 373.907 47.8339C372.156 45.9571 370.241 44.2414 368.183 42.7076C366.252 41.499 368.822 39.3873 371.864 40.207C373.163 40.5331 374.362 41.1702 375.359 42.0633C376.356 42.9564 377.121 44.0786 377.588 45.3333V45.3333Z" fill="white"/>
<path d="M377.74 112.461C376.768 112.822 378.546 114.49 378.546 114.49C378.546 114.49 397.995 107.835 409.804 100.986C409.832 100.571 409.761 100.156 409.597 99.7743C409.433 99.3925 409.18 99.0554 408.859 98.7911C398.753 103.932 388.363 108.496 377.74 112.461V112.461Z" fill="#5048E5"/>
<path opacity="0.5" d="M377.74 112.461C376.768 112.822 378.546 114.49 378.546 114.49C378.546 114.49 397.995 107.835 409.804 100.986C409.832 100.571 409.761 100.156 409.597 99.7743C409.433 99.3925 409.18 99.0554 408.859 98.7911C398.753 103.932 388.363 108.496 377.74 112.461V112.461Z" fill="white"/>
<path d="M392.05 55.0858C395.884 57.0307 399.482 59.0729 403.164 61.3374C404.956 62.4765 406.734 63.6296 408.498 64.8799C410.263 66.1302 412.013 67.4083 413.778 68.8531L414.431 69.395L415.25 70.1451C415.739 70.5821 416.202 71.0459 416.639 71.5344C417.084 72.0206 417.459 72.493 417.82 72.9236C418.181 73.3543 418.57 73.8683 418.89 74.3129C420.185 76.0988 421.381 77.9539 422.474 79.8698C424.627 83.5851 426.485 87.4638 428.031 91.47C428.317 92.2269 428.332 93.0594 428.073 93.826C427.814 94.5926 427.298 95.2459 426.612 95.6748C425.926 96.1038 425.113 96.2819 424.31 96.1789C423.508 96.0759 422.766 95.6981 422.21 95.1098L422.141 95.0264C419.362 92.0673 416.681 88.9554 413.986 86.0519C411.291 83.1484 408.554 80.2032 406.29 78.9112C403.136 76.9524 399.621 74.9936 396.134 73.0764L385.632 67.2416C384.003 66.3795 382.784 64.9057 382.242 63.1445C381.7 61.3833 381.88 59.4789 382.742 57.8504C383.604 56.2218 385.078 55.0025 386.839 54.4606C388.6 53.9187 390.505 54.0986 392.133 54.9608L392.05 55.0858Z" fill="#5048E5"/>
<path opacity="0.8" d="M392.05 55.0858C395.884 57.0307 399.482 59.0729 403.164 61.3374C404.956 62.4765 406.734 63.6296 408.498 64.8799C410.263 66.1302 412.013 67.4083 413.778 68.8531L414.431 69.395L415.25 70.1451C415.739 70.5821 416.202 71.0459 416.639 71.5344C417.084 72.0206 417.459 72.493 417.82 72.9236C418.181 73.3543 418.57 73.8683 418.89 74.3129C420.185 76.0988 421.381 77.9539 422.474 79.8698C424.627 83.5851 426.485 87.4638 428.031 91.47C428.317 92.2269 428.332 93.0594 428.073 93.826C427.814 94.5926 427.298 95.2459 426.612 95.6748C425.926 96.1038 425.113 96.2819 424.31 96.1789C423.508 96.0759 422.766 95.6981 422.21 95.1098L422.141 95.0264C419.362 92.0673 416.681 88.9554 413.986 86.0519C411.291 83.1484 408.554 80.2032 406.29 78.9112C403.136 76.9524 399.621 74.9936 396.134 73.0764L385.632 67.2416C384.003 66.3795 382.784 64.9057 382.242 63.1445C381.7 61.3833 381.88 59.4789 382.742 57.8504C383.604 56.2218 385.078 55.0025 386.839 54.4606C388.6 53.9187 390.505 54.0986 392.133 54.9608L392.05 55.0858Z" fill="white"/>
<path d="M431.323 98.4023L430.142 95.4432C430.142 95.4432 429.489 91.6645 427.141 90.6086L420.195 91.7061L420.431 92.3174C421.071 93.7066 420.584 96.249 419.959 98.2772C419.334 100.306 420.39 100.569 421.279 100.167C421.779 99.9443 422.265 99.0413 422.793 98.0828C423.052 98.5657 423.345 99.0299 423.668 99.472L425.377 101.82C425.734 102.306 426.262 102.64 426.855 102.753C427.447 102.867 428.061 102.751 428.572 102.431L430.462 101.222C430.904 100.92 431.23 100.476 431.387 99.9633C431.543 99.4508 431.521 98.9003 431.323 98.4023V98.4023Z" fill="#5048E5"/>
<path opacity="0.8" d="M431.323 98.4023L430.142 95.4432C430.142 95.4432 429.489 91.6645 427.141 90.6086L420.195 91.7061L420.431 92.3174C421.071 93.7066 420.584 96.249 419.959 98.2772C419.334 100.306 420.39 100.569 421.279 100.167C421.779 99.9443 422.265 99.0413 422.793 98.0828C423.052 98.5657 423.345 99.0299 423.668 99.472L425.377 101.82C425.734 102.306 426.262 102.64 426.855 102.753C427.447 102.867 428.061 102.751 428.572 102.431L430.462 101.222C430.904 100.92 431.23 100.476 431.387 99.9633C431.543 99.4508 431.521 98.9003 431.323 98.4023V98.4023Z" fill="white"/>
<path opacity="0.3" d="M386.187 71.062L384.492 71.2009L374.087 96.3184C374.656 96.3593 375.227 96.3124 375.782 96.1794C375.782 96.1794 389.341 91.1226 393.439 89.2333C390.688 83.5513 386.187 71.062 386.187 71.062Z" fill="#5048E5"/>
<path d="M367.196 77.647C368.461 84.2128 370.808 90.5227 374.142 96.3184C379.227 94.5679 387.701 91.2615 391.814 89.3722C389.05 83.447 386.597 77.3816 384.465 71.2009C380.116 71.4927 370.572 75.1464 367.196 77.647Z" fill="white"/>
<path opacity="0.3" d="M377.518 83.0789C377.315 83.7582 376.915 84.3621 376.369 84.8141C375.822 85.266 375.154 85.5458 374.449 85.6179C373.743 85.69 373.033 85.5513 372.406 85.2193C371.779 84.8873 371.265 84.3769 370.929 83.7527C370.593 83.1285 370.449 82.4186 370.516 81.7127C370.583 81.0068 370.858 80.3367 371.306 79.7872C371.755 79.2376 372.356 78.8333 373.034 78.6255C373.711 78.4176 374.436 78.4155 375.115 78.6194C376.025 78.8926 376.789 79.5156 377.239 80.3518C377.69 81.188 377.79 82.1688 377.518 83.0789V83.0789Z" fill="#5048E5"/>
<path opacity="0.6" d="M380.172 78.2999C380.117 78.5318 379.994 78.7419 379.819 78.9027C379.643 79.0634 379.423 79.1673 379.187 79.2006C378.951 79.234 378.711 79.1953 378.498 79.0896C378.284 78.9839 378.108 78.8162 377.991 78.6084C377.875 78.4006 377.824 78.1625 377.846 77.9254C377.867 77.6882 377.96 77.463 378.111 77.2794C378.263 77.0958 378.467 76.9624 378.695 76.8966C378.924 76.8308 379.168 76.8357 379.394 76.9107C379.675 77.0007 379.912 77.1942 380.056 77.452C380.201 77.7099 380.242 78.0129 380.172 78.2999Z" fill="#5048E5"/>
<path opacity="0.6" d="M383.285 77.0913C383.252 77.2524 383.186 77.405 383.091 77.5392C382.996 77.6734 382.874 77.7863 382.733 77.8707C382.592 77.955 382.435 78.009 382.271 78.0291C382.108 78.0492 381.943 78.035 381.785 77.9874C381.628 77.9398 381.482 77.8598 381.358 77.7526C381.233 77.6455 381.132 77.5134 381.061 77.365C380.99 77.2166 380.951 77.055 380.947 76.8906C380.942 76.7263 380.972 76.5628 381.034 76.4106C381.078 76.2635 381.151 76.1268 381.249 76.008C381.346 75.8893 381.466 75.791 381.602 75.7187C381.737 75.6464 381.886 75.6016 382.039 75.5868C382.192 75.5721 382.346 75.5876 382.493 75.6326C382.79 75.7226 383.04 75.9263 383.188 76.1993C383.336 76.4724 383.371 76.7929 383.285 77.0913V77.0913Z" fill="#5048E5"/>
<path opacity="0.5" d="M387.646 87.9134L374.795 92.9841L374.031 90.4557L386.868 85.385L387.646 87.9134Z" fill="#5048E5"/>
<path opacity="0.2" d="M316.755 280.99C316.726 289.079 315.944 297.148 314.421 305.093C312.782 312.234 310.235 317.457 306.781 320.764C305.172 322.361 303.261 323.622 301.16 324.474C299.058 325.325 296.809 325.75 294.541 325.723C287.401 325.723 281.95 321.829 278.19 314.04C277.529 312.641 276.968 311.197 276.509 309.719C268.568 316.54 261.173 323.972 254.392 331.947L247.016 340.644C250.985 344.667 255.566 348.039 260.588 350.632C269.239 355.106 280.594 357.347 294.653 357.356C297.125 357.356 299.515 357.287 301.835 357.148C310.341 344.562 317.379 331.045 322.812 316.86L343.443 263.069L316.755 280.99Z" fill="black"/>
<path d="M130.777 354.383L155.089 378.695L223.162 314.554C199.697 305.593 154.075 331.03 130.777 354.383Z" fill="#263238"/>
<path d="M215.563 439.127C207.797 431.347 191.251 414.815 191.251 414.815L255.392 346.742C264.297 370.151 238.86 415.815 215.563 439.127Z" fill="#263238"/>
<path d="M308.614 285.894L335.134 234.756L283.996 261.304C267.571 269.823 252.404 280.576 238.93 293.257L151.755 375.319L194.585 418.149L276.647 330.975C289.334 317.496 300.092 302.325 308.614 285.894V285.894Z" fill="#5048E5"/>
<path opacity="0.6" d="M308.614 285.894L335.134 234.756L283.996 261.304C267.571 269.823 252.404 280.576 238.93 293.257L151.755 375.319L194.585 418.149L276.647 330.975C289.334 317.496 300.092 302.325 308.614 285.894V285.894Z" fill="white"/>
<path d="M254.156 333.656C264.053 333.656 272.077 325.632 272.077 315.735C272.077 305.837 264.053 297.813 254.156 297.813C244.258 297.813 236.234 305.837 236.234 315.735C236.234 325.632 244.258 333.656 254.156 333.656Z" fill="white"/>
<path d="M254.155 327.251C260.516 327.251 265.672 322.095 265.672 315.735C265.672 309.374 260.516 304.218 254.155 304.218C247.795 304.218 242.639 309.374 242.639 315.735C242.639 322.095 247.795 327.251 254.155 327.251Z" fill="#5048E5"/>
<path opacity="0.3" d="M209.074 402.757L167.133 360.815L201.475 328.502L241.388 368.428L209.074 402.757Z" fill="#5048E5"/>
<path d="M140.266 392.754C108.869 395.296 98.4635 415.399 94.907 442.114C93.101 455.742 92.2953 469.537 80.8618 477.511C80.174 477.979 79.6561 478.657 79.3858 479.443C79.1154 480.23 79.1071 481.083 79.3621 481.874C79.6171 482.666 80.1217 483.353 80.8003 483.834C81.4789 484.315 82.2949 484.563 83.1263 484.541C125.276 483.221 144.934 462.591 147.406 453.978C146.757 458.48 145.597 462.894 143.947 467.134C143.644 467.882 143.585 468.707 143.778 469.491C143.97 470.274 144.406 470.977 145.022 471.499C145.637 472.021 146.402 472.335 147.207 472.397C148.012 472.459 148.816 472.265 149.504 471.843C161.327 464.439 176.164 450.796 177.15 428.666C168.453 416.343 140.266 392.754 140.266 392.754Z" fill="#5048E5"/>
<path opacity="0.2" d="M140.266 392.754C108.869 395.296 98.4635 415.399 94.907 442.114C93.101 455.742 92.2953 469.537 80.8618 477.511C80.174 477.979 79.6561 478.657 79.3858 479.443C79.1154 480.23 79.1071 481.083 79.3621 481.874C79.6171 482.666 80.1217 483.353 80.8003 483.834C81.4789 484.315 82.2949 484.563 83.1263 484.541C125.276 483.221 144.934 462.591 147.406 453.978C146.757 458.48 145.597 462.894 143.947 467.134C143.644 467.882 143.585 468.707 143.778 469.491C143.97 470.274 144.406 470.977 145.022 471.499C145.637 472.021 146.402 472.335 147.207 472.397C148.012 472.459 148.816 472.265 149.504 471.843C161.327 464.439 176.164 450.796 177.15 428.666C168.453 416.343 140.266 392.754 140.266 392.754Z" fill="white"/>
<path d="M182.026 438.154L131.735 387.864L158.52 382.071L187.819 411.37L182.026 438.154Z" fill="#5048E5"/>
</svg>
