<svg width="291" height="282" viewBox="0 0 291 282" fill="none" xmlns="http://www.w3.org/2000/svg">
<path d="M276.684 280.771C276.684 280.858 217.358 280.933 144.188 280.933C71.0187 280.933 11.6809 280.858 11.6809 280.771C11.6809 280.684 70.9938 280.609 144.188 280.609C217.383 280.609 276.684 280.678 276.684 280.771Z" fill="#263238"/>
<path d="M265.736 30.7005H22.7589V46.267H265.736V30.7005Z" fill="#E0E0E0"/>
<path d="M265.699 60.5652H22.7216V196.834H265.699V60.5652Z" fill="white"/>
<path d="M22.7589 46.1489H56.1236L59.4247 36.5255H113.509L116.81 46.1489H265.736V60.8947H22.7589V46.1489Z" fill="#EBEBEB"/>
<path d="M30.7784 36.911C30.7784 37.2724 30.6712 37.6258 30.4704 37.9264C30.2695 38.2269 29.9841 38.4612 29.6501 38.5995C29.3162 38.7379 28.9487 38.774 28.5941 38.7035C28.2396 38.633 27.9139 38.4589 27.6583 38.2033C27.4027 37.9477 27.2286 37.6221 27.1581 37.2675C27.0876 36.913 27.1238 36.5455 27.2621 36.2115C27.4005 35.8776 27.6347 35.5921 27.9353 35.3913C28.2358 35.1905 28.5892 35.0833 28.9507 35.0833C29.1909 35.0824 29.429 35.1292 29.6511 35.2207C29.8732 35.3123 30.075 35.4469 30.2449 35.6168C30.4148 35.7866 30.5494 35.9884 30.6409 36.2106C30.7325 36.4327 30.7792 36.6707 30.7784 36.911Z" fill="#263238"/>
<path d="M36.4293 36.911C36.4293 37.2724 36.3221 37.6258 36.1213 37.9264C35.9205 38.2269 35.635 38.4612 35.301 38.5995C34.9671 38.7379 34.5996 38.774 34.245 38.7035C33.8905 38.633 33.5649 38.4589 33.3092 38.2033C33.0536 37.9477 32.8796 37.6221 32.809 37.2675C32.7385 36.913 32.7747 36.5455 32.913 36.2115C33.0514 35.8776 33.2856 35.5921 33.5862 35.3913C33.8868 35.1905 34.2401 35.0833 34.6016 35.0833C34.8419 35.0824 35.0799 35.1292 35.302 35.2207C35.5241 35.3123 35.7259 35.4469 35.8958 35.6168C36.0657 35.7866 36.2003 35.9884 36.2919 36.2106C36.3834 36.4327 36.4301 36.6707 36.4293 36.911Z" fill="#263238"/>
<path d="M42.0802 36.911C42.0802 37.2724 41.973 37.6258 41.7722 37.9264C41.5714 38.2269 41.2859 38.4612 40.952 38.5995C40.618 38.7379 40.2505 38.774 39.896 38.7035C39.5414 38.633 39.2158 38.4589 38.9602 38.2033C38.7046 37.9477 38.5305 37.6221 38.46 37.2675C38.3895 36.913 38.4256 36.5455 38.564 36.2115C38.7023 35.8776 38.9366 35.5921 39.2371 35.3913C39.5377 35.1905 39.8911 35.0833 40.2525 35.0833C40.4928 35.0824 40.7308 35.1292 40.9529 35.2207C41.1751 35.3123 41.3769 35.4469 41.5467 35.6168C41.7166 35.7866 41.8512 35.9884 41.9428 36.2106C42.0343 36.4327 42.0811 36.6707 42.0802 36.911Z" fill="#263238"/>
<path d="M238.88 57.9604H72.1812C70.9545 57.9604 69.7781 57.4731 68.9107 56.6058C68.0433 55.7384 67.556 54.5619 67.556 53.3353C67.556 52.1086 68.0433 50.9322 68.9107 50.0648C69.7781 49.1974 70.9545 48.7101 72.1812 48.7101H238.88C240.107 48.7101 241.283 49.1974 242.151 50.0648C243.018 50.9322 243.506 52.1086 243.506 53.3353C243.506 54.5619 243.018 55.7384 242.151 56.6058C241.283 57.4731 240.107 57.9604 238.88 57.9604Z" fill="#FAFAFA"/>
<path d="M76.1723 53.9508V55.5173H75.3828V54.0751C75.3828 53.6337 75.1776 53.4534 74.8295 53.4534C74.4814 53.4534 74.1705 53.6897 74.1705 54.187V55.5422H73.381V51.7501H74.1705V53.068C74.408 52.8519 74.7199 52.7361 75.0408 52.7447C75.1987 52.7342 75.3569 52.7588 75.504 52.8168C75.6512 52.8748 75.7837 52.9647 75.8919 53.08C76.0002 53.1954 76.0814 53.3333 76.1299 53.4839C76.1784 53.6345 76.1929 53.7939 76.1723 53.9508V53.9508Z" fill="#E0E0E0"/>
<path d="M78.6465 55.3806C78.4612 55.4991 78.2448 55.5597 78.0248 55.5546C77.8898 55.5732 77.7524 55.5608 77.6229 55.5186C77.4933 55.4764 77.375 55.4053 77.2769 55.3108C77.1788 55.2162 77.1033 55.1007 77.0563 54.9728C77.0093 54.8449 76.9918 54.708 77.0053 54.5724V53.4534H76.5826V52.8317H77.0053V52.1666H77.7948V52.8317H78.4724V53.4534H77.7948V54.5724C77.7881 54.6197 77.7921 54.6679 77.8066 54.7135C77.8211 54.759 77.8457 54.8007 77.8786 54.8353C77.9115 54.87 77.9518 54.8968 77.9965 54.9137C78.0412 54.9306 78.0891 54.9372 78.1367 54.933C78.2513 54.9344 78.363 54.8971 78.4538 54.8273L78.6465 55.3806Z" fill="#E0E0E0"/>
<path d="M80.7726 55.3806C80.5867 55.4977 80.3707 55.5582 80.1509 55.5546C80.0159 55.5732 79.8785 55.5608 79.749 55.5186C79.6194 55.4764 79.5011 55.4053 79.403 55.3108C79.3049 55.2162 79.2294 55.1007 79.1824 54.9728C79.1354 54.8449 79.1179 54.708 79.1314 54.5724V53.4534H78.7087V52.8317H79.1314V52.1666H79.9209V52.8317H80.6047V53.4534H79.9209V54.5724C79.9153 54.6195 79.9202 54.6672 79.9351 54.7122C79.9501 54.7572 79.9747 54.7984 80.0074 54.8328C80.04 54.8672 80.0798 54.894 80.1239 54.9113C80.1681 54.9287 80.2155 54.936 80.2628 54.933C80.3793 54.9343 80.4929 54.8972 80.5861 54.8273L80.7726 55.3806Z" fill="#E0E0E0"/>
<path d="M84.2166 54.1497C84.2279 54.3334 84.2008 54.5175 84.137 54.6902C84.0731 54.8629 83.974 55.0203 83.8459 55.1525C83.7178 55.2848 83.5635 55.3888 83.3929 55.458C83.2223 55.5273 83.0392 55.5602 82.8552 55.5546C82.7027 55.5618 82.5506 55.5361 82.409 55.4793C82.2674 55.4224 82.1397 55.3357 82.0346 55.2251V56.4685H81.245V52.7385H82.0159V53.0555C82.1234 52.9362 82.2562 52.8424 82.4047 52.781C82.5531 52.7197 82.7134 52.6924 82.8738 52.7012C83.0602 52.6977 83.2453 52.7337 83.4169 52.8067C83.5884 52.8797 83.7426 52.9881 83.8694 53.1249C83.9962 53.2616 84.0926 53.4236 84.1524 53.6002C84.2123 53.7768 84.2341 53.964 84.2166 54.1497V54.1497ZM83.4147 54.1497C83.4026 54.0153 83.3518 53.8873 83.2683 53.7812C83.1849 53.6752 83.0724 53.5957 82.9446 53.5524C82.8168 53.5091 82.6791 53.5039 82.5484 53.5373C82.4177 53.5708 82.2995 53.6416 82.2083 53.741C82.117 53.8404 82.0566 53.9641 82.0344 54.0972C82.0122 54.2303 82.0291 54.367 82.0832 54.4907C82.1372 54.6143 82.226 54.7196 82.3388 54.7937C82.4516 54.8678 82.5835 54.9076 82.7184 54.9081C82.8156 54.9094 82.912 54.8903 83.0012 54.8518C83.0905 54.8133 83.1706 54.7564 83.2363 54.6848C83.3021 54.6132 83.3519 54.5285 83.3827 54.4363C83.4134 54.344 83.4243 54.2464 83.4147 54.1497Z" fill="#E0E0E0"/>
<path d="M84.5523 53.2358C84.566 53.1143 84.6239 53.0021 84.7151 52.9206C84.8062 52.8391 84.9242 52.794 85.0465 52.794C85.1688 52.794 85.2868 52.8391 85.378 52.9206C85.4691 53.0021 85.5271 53.1143 85.5407 53.2358C85.5486 53.3054 85.5416 53.3758 85.5203 53.4425C85.4991 53.5092 85.4639 53.5706 85.4173 53.6228C85.3706 53.675 85.3135 53.7167 85.2496 53.7453C85.1857 53.7739 85.1165 53.7887 85.0465 53.7887C84.9765 53.7887 84.9073 53.7739 84.8434 53.7453C84.7795 53.7167 84.7224 53.675 84.6757 53.6228C84.6291 53.5706 84.594 53.5092 84.5727 53.4425C84.5514 53.3758 84.5445 53.3054 84.5523 53.2358V53.2358ZM84.5523 55.0573C84.566 54.9358 84.6239 54.8235 84.7151 54.742C84.8062 54.6605 84.9242 54.6155 85.0465 54.6155C85.1688 54.6155 85.2868 54.6605 85.378 54.742C85.4691 54.8235 85.5271 54.9358 85.5407 55.0573C85.5486 55.1269 85.5416 55.1973 85.5203 55.264C85.4991 55.3306 85.4639 55.3921 85.4173 55.4443C85.3706 55.4965 85.3135 55.5382 85.2496 55.5668C85.1857 55.5954 85.1165 55.6101 85.0465 55.6101C84.9765 55.6101 84.9073 55.5954 84.8434 55.5668C84.7795 55.5382 84.7224 55.4965 84.6757 55.4443C84.6291 55.3921 84.594 55.3306 84.5727 55.264C84.5514 55.1973 84.5445 55.1269 84.5523 55.0573V55.0573Z" fill="#E0E0E0"/>
<path d="M87.4866 51.2403H88.1953L86.5168 56.0209H85.8143L87.4866 51.2403Z" fill="#E0E0E0"/>
<path d="M89.1091 51.2403H89.8116L88.1393 56.0209H87.4306L89.1091 51.2403Z" fill="#E0E0E0"/>
<path d="M238.731 85.0712H93.4918C91.3171 85.0712 89.2315 84.2073 87.6937 82.6696C86.156 81.1318 85.2921 79.0462 85.2921 76.8715V76.8715C85.2937 74.6973 86.1582 72.6126 87.6956 71.0752C89.2329 69.5378 91.3176 68.6734 93.4918 68.6718H238.731C240.905 68.6734 242.99 69.5378 244.527 71.0752C246.065 72.6126 246.929 74.6973 246.931 76.8715C246.931 79.0462 246.067 81.1318 244.529 82.6696C242.991 84.2073 240.906 85.0712 238.731 85.0712V85.0712Z" fill="#FAFAFA"/>
<path d="M238.731 85.0712C239.89 85.0462 241.031 84.7883 242.088 84.3128C243.128 83.8342 244.057 83.1451 244.817 82.289C245.576 81.433 246.15 80.4286 246.502 79.3395C246.797 78.3676 246.91 77.3498 246.838 76.3368C246.761 75.2028 246.447 74.0975 245.918 73.0918C245.325 71.9899 244.49 71.0375 243.474 70.3067C242.365 69.5074 241.071 69.0026 239.713 68.8396C238.992 68.7778 238.268 68.757 237.544 68.7774H235.281H214.399L93.5043 68.8209C92.0526 68.8251 90.6288 69.2202 89.3826 69.9648C88.1582 70.6958 87.1502 71.7395 86.4623 72.9887C85.7743 74.2379 85.431 75.6476 85.4678 77.0733C85.5045 78.4989 85.9198 79.8891 86.6711 81.1012C87.4224 82.3134 88.4827 83.3038 89.7432 83.9709C90.9882 84.6161 92.3759 84.9368 93.7778 84.9034H134.298L188.65 84.9407L225.328 84.9904H235.275H237.867C238.451 84.9904 238.75 84.9904 238.75 84.9904H237.867H235.275H225.328L188.65 85.0464L134.298 85.0774H102.195H93.7778C92.3234 85.1149 90.8835 84.7812 89.594 84.1076C87.9432 83.2347 86.6321 81.8343 85.8697 80.1296C85.1074 78.4249 84.9376 76.5141 85.3875 74.7017C85.8374 72.8893 86.881 71.2797 88.352 70.1294C89.8231 68.9791 91.6369 68.3543 93.5043 68.3547L214.43 68.5598H235.312H237.575C238.307 68.5419 239.04 68.5648 239.769 68.6282C241.151 68.8 242.467 69.3198 243.593 70.1388C244.58 70.8464 245.398 71.7644 245.987 72.8267C246.576 73.8889 246.922 75.0687 246.999 76.2809C247.065 77.3097 246.943 78.3419 246.639 79.327C246.357 80.187 245.937 80.9953 245.395 81.7204C244.552 82.8635 243.428 83.7694 242.132 84.3501C241.342 84.6974 240.503 84.9218 239.645 85.0153C239.03 85.0712 238.731 85.0712 238.731 85.0712Z" fill="#263238"/>
<path d="M96.824 78.6184L97.1286 77.9345C97.5132 78.1981 97.9678 78.341 98.4341 78.3448C98.9749 78.3448 99.1925 78.1645 99.1925 77.9221C99.1925 77.1823 96.8986 77.6921 96.8986 76.225C96.8986 75.5536 97.4394 74.9816 98.5646 74.9816C99.0435 74.9724 99.516 75.0927 99.9323 75.3298L99.6525 76.026C99.3212 75.8286 98.944 75.7214 98.5584 75.7152C98.0175 75.7152 97.8062 75.9203 97.8062 76.169C97.8062 76.8964 100.1 76.3928 100.1 77.8413C100.1 78.5002 99.5531 79.0846 98.4278 79.0846C97.858 79.0977 97.298 78.9349 96.824 78.6184V78.6184Z" fill="#E0E0E0"/>
<path d="M103.619 77.7418H101.325C101.37 77.9331 101.484 78.1013 101.644 78.2156C101.804 78.3298 101.999 78.3824 102.195 78.3635C102.335 78.3679 102.475 78.3437 102.605 78.2924C102.735 78.241 102.854 78.1637 102.954 78.0651L103.42 78.5749C103.183 78.8029 102.887 78.9602 102.565 79.029C102.243 79.0978 101.909 79.0753 101.599 78.9641C101.29 78.8529 101.017 78.6575 100.813 78.3998C100.608 78.1421 100.48 77.8324 100.442 77.5056C100.439 77.2951 100.48 77.0863 100.561 76.8921C100.641 76.6978 100.761 76.5221 100.913 76.3759C101.064 76.2298 101.244 76.1161 101.441 76.0421C101.638 75.968 101.848 75.935 102.058 75.9452C102.268 75.9346 102.478 75.9679 102.674 76.0431C102.869 76.1183 103.048 76.2337 103.196 76.3818C103.345 76.53 103.461 76.7076 103.537 76.9033C103.613 77.0989 103.647 77.3084 103.637 77.518C103.637 77.574 103.625 77.6672 103.619 77.7418ZM101.312 77.2259H102.804C102.772 77.0513 102.68 76.8936 102.544 76.78C102.408 76.6664 102.236 76.6042 102.058 76.6042C101.881 76.6042 101.709 76.6664 101.573 76.78C101.437 76.8936 101.344 77.0513 101.312 77.2259V77.2259Z" fill="#E0E0E0"/>
<path d="M106.82 77.2755V79.01H106V78.6308C105.897 78.7777 105.757 78.8944 105.594 78.9687C105.431 79.0431 105.252 79.0724 105.073 79.0535C104.365 79.0535 103.942 78.6556 103.942 78.1334C103.942 77.6112 104.321 77.2258 105.241 77.2258H105.944C105.944 76.8528 105.714 76.6041 105.241 76.6041C104.929 76.6014 104.623 76.6995 104.371 76.8839L104.054 76.2622C104.443 76.0136 104.898 75.886 105.359 75.8954C106.261 75.9327 106.82 76.3617 106.82 77.2755ZM105.944 78.0526V77.7418H105.322C104.912 77.7418 104.781 77.891 104.781 78.0961C104.781 78.3013 104.968 78.4629 105.272 78.4629C105.414 78.4769 105.556 78.4443 105.677 78.3703C105.798 78.2963 105.892 78.1847 105.944 78.0526V78.0526Z" fill="#E0E0E0"/>
<path d="M109.5 75.9328V76.741H109.301C109.19 76.7319 109.079 76.7474 108.976 76.7865C108.872 76.8257 108.779 76.8873 108.702 76.9671C108.625 77.0468 108.567 77.1427 108.532 77.2476C108.497 77.3526 108.486 77.4641 108.499 77.574V79.01H107.616V75.9763H108.455V76.3742C108.582 76.2231 108.743 76.1043 108.924 76.0275C109.106 75.9508 109.303 75.9183 109.5 75.9328Z" fill="#E0E0E0"/>
<path d="M109.773 77.4932C109.773 77.2771 109.818 77.0634 109.905 76.8654C109.992 76.6675 110.119 76.4897 110.277 76.3431C110.436 76.1966 110.624 76.0845 110.828 76.0139C111.032 75.9432 111.249 75.9156 111.464 75.9328C111.741 75.9106 112.019 75.9722 112.26 76.1097C112.502 76.2471 112.697 76.4541 112.819 76.7037L112.136 77.0704C112.073 76.9446 111.976 76.8389 111.856 76.7653C111.736 76.6917 111.598 76.6531 111.458 76.6539C111.235 76.6539 111.022 76.7423 110.864 76.8997C110.707 77.0571 110.619 77.2706 110.619 77.4932C110.619 77.7158 110.707 77.9292 110.864 78.0866C111.022 78.244 111.235 78.3324 111.458 78.3324C111.599 78.3347 111.737 78.2968 111.857 78.223C111.977 78.1492 112.074 78.0427 112.136 77.9159L112.819 78.2889C112.695 78.5362 112.499 78.7409 112.258 78.8771C112.017 79.0132 111.74 79.0746 111.464 79.0536C111.249 79.0707 111.032 79.0431 110.828 78.9725C110.624 78.9019 110.436 78.7897 110.277 78.6432C110.119 78.4966 109.992 78.3188 109.905 78.1209C109.818 77.923 109.773 77.7093 109.773 77.4932V77.4932Z" fill="#E0E0E0"/>
<path d="M116.406 77.2756V79.01H115.524V77.4061C115.524 76.915 115.3 76.6912 114.902 76.6912C114.504 76.6912 114.175 76.9523 114.175 77.5118V79.01H113.292V74.8262H114.175V76.2934C114.303 76.1723 114.455 76.0781 114.62 76.0162C114.786 75.9542 114.962 75.9259 115.138 75.9328C115.315 75.9191 115.492 75.9452 115.657 76.0089C115.822 76.0727 115.971 76.1726 116.093 76.3014C116.214 76.4301 116.306 76.5844 116.36 76.753C116.414 76.9215 116.43 77.1001 116.406 77.2756Z" fill="#E0E0E0"/>
<path d="M118.582 78.5003C118.582 78.3552 118.64 78.216 118.742 78.1134C118.845 78.0108 118.984 77.9532 119.129 77.9532C119.274 77.9532 119.413 78.0108 119.516 78.1134C119.619 78.216 119.676 78.3552 119.676 78.5003C119.676 78.6453 119.619 78.7845 119.516 78.8871C119.413 78.9897 119.274 79.0473 119.129 79.0473C118.984 79.0473 118.845 78.9897 118.742 78.8871C118.64 78.7845 118.582 78.6453 118.582 78.5003Z" fill="#E0E0E0"/>
<path d="M120.062 78.5003C120.063 78.3923 120.096 78.2872 120.157 78.198C120.218 78.1089 120.304 78.0397 120.404 77.9993C120.504 77.9588 120.614 77.9489 120.719 77.9707C120.825 77.9925 120.922 78.0451 120.998 78.1218C121.074 78.1986 121.125 78.2961 121.146 78.402C121.166 78.508 121.155 78.6176 121.114 78.7172C121.072 78.8168 121.002 78.9019 120.912 78.9618C120.822 79.0216 120.717 79.0535 120.609 79.0535C120.536 79.0544 120.464 79.0406 120.397 79.013C120.33 78.9855 120.269 78.9446 120.218 78.893C120.167 78.8414 120.127 78.78 120.1 78.7125C120.073 78.645 120.06 78.5728 120.062 78.5003Z" fill="#E0E0E0"/>
<path d="M121.535 78.5003C121.535 78.3552 121.593 78.216 121.695 78.1134C121.798 78.0108 121.937 77.9532 122.082 77.9532C122.227 77.9532 122.366 78.0108 122.469 78.1134C122.572 78.216 122.629 78.3552 122.629 78.5003C122.629 78.5721 122.615 78.6432 122.588 78.7096C122.56 78.776 122.52 78.8363 122.469 78.8871C122.418 78.9379 122.358 78.9782 122.292 79.0057C122.225 79.0332 122.154 79.0473 122.082 79.0473C122.01 79.0473 121.939 79.0332 121.873 79.0057C121.806 78.9782 121.746 78.9379 121.695 78.8871C121.645 78.8363 121.604 78.776 121.577 78.7096C121.549 78.6432 121.535 78.5721 121.535 78.5003V78.5003Z" fill="#E0E0E0"/>
<path d="M68.3828 99.3322C68.3828 99.4255 62.5516 99.4939 55.3652 99.4939C48.1788 99.4939 42.3475 99.4255 42.3475 99.3322C42.3475 99.239 48.1725 99.1706 55.3652 99.1706C62.5578 99.1706 68.3828 99.2576 68.3828 99.3322Z" fill="black"/>
<path d="M69.4024 106.786H42.3475V133.841H69.4024V106.786Z" fill="#455A64"/>
<path d="M233.795 113.164C233.795 113.251 200.225 113.326 158.798 113.326C117.37 113.326 83.7939 113.251 83.7939 113.164C83.7939 113.077 117.364 113.003 158.798 113.003C200.232 113.003 233.795 113.071 233.795 113.164Z" fill="black"/>
<path d="M124.824 123.347C124.824 123.44 115.971 123.509 105.061 123.509C94.1508 123.509 85.2921 123.44 85.2921 123.347C85.2921 123.254 94.1384 123.185 105.061 123.185C115.984 123.185 124.824 123.26 124.824 123.347Z" fill="black"/>
<path d="M209.824 132.796C209.824 132.883 181.942 132.958 147.558 132.958C113.174 132.958 85.2921 132.883 85.2921 132.796C85.2921 132.709 113.167 132.629 147.558 132.629C181.948 132.629 209.824 132.703 209.824 132.796Z" fill="#E0E0E0"/>
<path d="M68.3828 147.822C68.3828 147.909 62.5516 147.984 55.3652 147.984C48.1788 147.984 42.3475 147.909 42.3475 147.822C42.3475 147.735 48.1725 147.66 55.3652 147.66C62.5578 147.66 68.3828 147.716 68.3828 147.822Z" fill="black"/>
<path d="M69.4024 155.245H42.3475V182.299H69.4024V155.245Z" fill="#455A64"/>
<path d="M242.71 161.617C242.71 161.71 207.132 161.778 163.255 161.778C119.378 161.778 83.7939 161.71 83.7939 161.617C83.7939 161.523 119.365 161.455 163.255 161.455C207.144 161.455 242.71 161.53 242.71 161.617Z" fill="black"/>
<path d="M124.824 171.806C124.824 171.893 115.971 171.967 105.061 171.967C94.1508 171.967 85.2921 171.893 85.2921 171.806C85.2921 171.719 94.1384 171.644 105.061 171.644C115.984 171.644 124.824 171.719 124.824 171.806Z" fill="black"/>
<path d="M231.507 181.249C231.507 181.342 198.777 181.41 158.406 181.41C118.035 181.41 85.2921 181.342 85.2921 181.249C85.2921 181.156 118.023 181.087 158.406 181.087C198.789 181.087 231.507 181.162 231.507 181.249Z" fill="#E0E0E0"/>
<path d="M265.736 197.163C265.736 196.094 265.687 132.013 265.606 30.7005L265.736 30.8311H22.7776L22.9392 30.6694C22.9392 90.0881 22.9392 146.541 22.9392 197.132L22.79 196.983L265.767 197.132L22.79 197.275H22.6408V197.132C22.6408 146.541 22.6408 90.0881 22.6408 30.6694V30.5078H22.8211H265.78H265.91V30.6384C265.792 132.013 265.736 196.094 265.736 197.163Z" fill="#263238"/>
<path d="M106.945 42.7608C106.945 42.8541 98.3657 42.9224 87.7849 42.9224C77.2042 42.9224 68.6253 42.8541 68.6253 42.7608C68.6253 42.6676 77.2042 42.5992 87.7849 42.5992C98.3657 42.5992 106.945 42.6738 106.945 42.7608Z" fill="black"/>
<path d="M72.3801 73.3591H38.3503V83.6103H72.3801V73.3591Z" fill="#455A64"/>
<path d="M132.638 100.209C132.638 100.302 122.07 100.37 109.015 100.37C95.9598 100.37 85.3915 100.302 85.3915 100.209C85.3915 100.116 95.9598 100.047 109.015 100.047C122.07 100.047 132.638 100.122 132.638 100.209Z" fill="#455A64"/>
<path d="M132.638 147.822C132.638 147.909 122.07 147.984 109.015 147.984C95.9598 147.984 85.3915 147.909 85.3915 147.822C85.3915 147.735 95.9598 147.66 109.015 147.66C122.07 147.66 132.638 147.716 132.638 147.822Z" fill="#455A64"/>
<path d="M235.604 79.6006C234.822 79.6018 234.056 79.3709 233.405 78.9369C232.754 78.5029 232.246 77.8855 231.946 77.1628C231.646 76.44 231.567 75.6446 231.72 74.877C231.872 74.1095 232.249 73.4044 232.802 72.8511C233.355 72.2978 234.061 71.9211 234.828 71.7687C235.596 71.6164 236.391 71.6952 237.114 71.9952C237.837 72.2952 238.454 72.803 238.888 73.4541C239.322 74.1053 239.553 74.8705 239.552 75.6531C239.55 76.6995 239.134 77.7026 238.394 78.4426C237.654 79.1825 236.651 79.599 235.604 79.6006V79.6006ZM235.604 72.3209C234.945 72.3197 234.3 72.5141 233.751 72.8795C233.202 73.2449 232.774 73.7648 232.521 74.3736C232.268 74.9823 232.201 75.6525 232.329 76.2993C232.457 76.9461 232.774 77.5404 233.24 78.007C233.705 78.4736 234.299 78.7916 234.946 78.9207C235.592 79.0498 236.262 78.9841 236.872 78.7321C237.481 78.4801 238.002 78.053 238.368 77.5049C238.734 76.9568 238.93 76.3123 238.93 75.6531C238.93 74.7704 238.58 73.9238 237.956 73.2991C237.333 72.6744 236.487 72.3226 235.604 72.3209V72.3209Z" fill="#455A64"/>
<path d="M240.459 81.3537C240.375 81.3535 240.295 81.3199 240.236 81.2604L237.662 78.7054C237.633 78.6764 237.61 78.642 237.594 78.6041C237.579 78.5663 237.57 78.5257 237.57 78.4847C237.57 78.4437 237.579 78.4031 237.594 78.3653C237.61 78.3274 237.633 78.293 237.662 78.264C237.691 78.235 237.725 78.2121 237.763 78.1964C237.801 78.1807 237.842 78.1726 237.883 78.1726C237.924 78.1726 237.964 78.1807 238.002 78.1964C238.04 78.2121 238.074 78.235 238.103 78.264L240.677 80.8191C240.719 80.8633 240.747 80.9186 240.758 80.9784C240.769 81.0383 240.763 81.1 240.74 81.1564C240.717 81.2128 240.679 81.2614 240.629 81.2964C240.579 81.3313 240.52 81.3512 240.459 81.3537V81.3537Z" fill="#455A64"/>
<path d="M175.191 122.651C175.191 122.738 165.014 122.812 152.457 122.812C139.899 122.812 129.716 122.738 129.716 122.651C129.716 122.564 139.899 122.489 152.457 122.489C165.014 122.489 175.191 122.558 175.191 122.651Z" fill="black"/>
<path d="M204.577 121.948C204.577 122.042 199.249 122.11 192.684 122.11C186.12 122.11 180.786 122.042 180.786 121.948C180.786 121.855 186.114 121.787 192.684 121.787C199.255 121.787 204.577 121.861 204.577 121.948Z" fill="black"/>
<path d="M174.973 171.806C174.973 171.893 164.797 171.967 152.239 171.967C139.681 171.967 129.505 171.893 129.505 171.806C129.505 171.719 139.681 171.644 152.239 171.644C164.797 171.644 174.973 171.719 174.973 171.806Z" fill="black"/>
<path d="M52.9345 184.6C47.8866 187.211 44.0198 191.711 41.241 196.666C38.4621 201.621 36.6655 207.048 34.8938 212.475L33.3396 240.307C39.2081 230.323 43.9079 218.586 45.1885 207.073L41.2845 206.725C43.9017 206.327 46.1024 204.431 47.5011 202.18C48.8999 199.93 49.6148 197.338 50.3173 194.782L45.5553 195.491C49.324 192.945 51.9668 189.044 52.9345 184.6V184.6Z" fill="#455A64"/>
<g opacity="0.3">
<path d="M52.9345 184.6C47.8866 187.211 44.0198 191.711 41.241 196.666C38.4621 201.621 36.6655 207.048 34.8938 212.475L33.3396 240.307C39.2081 230.323 43.9079 218.586 45.1885 207.073L41.2845 206.725C43.9017 206.327 46.1024 204.431 47.5011 202.18C48.8999 199.93 49.6148 197.338 50.3173 194.782L45.5553 195.491C49.324 192.945 51.9668 189.044 52.9345 184.6V184.6Z" fill="black"/>
</g>
<path d="M32.4693 246.791C32.4693 246.791 19.7314 231.548 19.8806 216.995H25.0218C25.0218 216.995 19.4268 213.314 19.8744 211.257C20.322 209.199 20.4961 201.409 20.4961 201.409L25.2021 202.584C25.2021 202.584 21.671 200.819 21.2296 198.028C20.7882 195.236 22.2616 182.293 22.2616 182.293C22.2616 182.293 27.9933 188.323 29.7589 194.497C31.5244 200.67 36.1247 207.875 34.7695 226.692C33.4142 245.51 32.4693 246.791 32.4693 246.791Z" fill="#455A64"/>
<path d="M38.9284 248.233C38.9284 248.233 52.7293 239.039 55.7941 227.308L51.6538 226.152C51.6538 226.152 56.9566 224.423 57.0499 222.67C57.1431 220.917 58.7284 214.62 58.7284 214.62L54.6876 214.539C54.6876 214.539 57.914 213.917 58.8776 211.741C59.8412 209.566 61.4948 198.873 61.4948 198.873C61.4948 198.873 55.5641 202.46 52.7915 207.042C50.0189 211.623 44.7099 216.398 41.6948 231.827C38.6797 247.257 38.9284 248.233 38.9284 248.233Z" fill="#455A64"/>
<path d="M25.7118 195.591C25.7338 195.641 25.7504 195.693 25.7615 195.746L25.8734 196.212C25.9729 196.654 26.1097 197.257 26.29 198.021C26.6443 199.594 27.1168 201.876 27.6514 204.704C28.7393 210.355 30.0262 218.213 31.0395 226.941C32.0528 235.669 32.5874 243.614 32.8174 249.371C32.9355 252.249 32.9977 254.574 33.0101 256.209C33.0101 256.999 33.0101 257.614 33.0101 258.074C33.0101 258.273 33.0101 258.428 33.0101 258.559C33.0194 258.612 33.0194 258.667 33.0101 258.721C33.0016 258.667 33.0016 258.613 33.0101 258.559C33.0101 258.435 33.0101 258.273 33.0101 258.08C33.0101 257.626 32.9728 257.011 32.9418 256.215C32.892 254.605 32.7926 252.28 32.6434 249.408C32.3574 243.658 31.7793 235.731 30.7784 227.028C29.7775 218.325 28.5217 210.455 27.4898 204.791C26.98 201.963 26.5448 199.675 26.2464 198.096C26.0972 197.325 25.9791 196.716 25.8921 196.281C25.861 196.082 25.8299 195.926 25.8113 195.802C25.763 195.74 25.729 195.668 25.7118 195.591Z" fill="#263238"/>
<path d="M30.7038 256.128C30.7038 256.128 19.0476 242.937 15.4233 234.905L18.1586 233.742C16.1755 234.065 14.1489 233.214 12.6134 231.921C11.1383 230.555 9.86929 228.982 8.84608 227.252L12.4455 226.63C9.14021 225.69 6.3226 223.516 4.57525 220.557C8.82743 221.253 12.6569 223.584 15.8336 226.5C18.3545 228.917 20.6439 231.564 22.6719 234.407C23.6862 235.774 24.5727 237.23 25.3202 238.759C27.266 242.812 30.71 251.273 30.7038 256.128Z" fill="#455A64"/>
<path d="M55.9744 206.594C55.9649 206.642 55.9481 206.688 55.9247 206.731L55.7506 207.116L55.0481 208.59C54.4265 209.833 53.5499 211.698 52.4807 214.004C50.3421 218.586 47.5073 224.989 44.7347 232.188C41.9621 239.387 39.7614 246.02 38.2321 250.838C37.4799 253.256 36.8893 255.19 36.4915 256.576L36.0128 258.149L35.8822 258.553C35.8822 258.64 35.8325 258.69 35.8263 258.683C35.8201 258.677 35.8263 258.634 35.8263 258.54L35.9258 258.13L36.336 256.551C36.6966 255.183 37.2561 253.213 37.9835 250.788C39.4319 245.933 41.614 239.281 44.399 232.07C47.1841 224.859 50.05 218.468 52.2444 213.905C53.3386 211.623 54.2524 209.789 54.9051 208.534L55.6636 207.085L55.8687 206.718C55.899 206.673 55.9345 206.631 55.9744 206.594V206.594Z" fill="#263238"/>
<path d="M31.6922 261.798C31.6018 261.489 31.5394 261.173 31.5057 260.853C31.4125 260.231 31.2571 259.367 31.0395 258.285C30.4679 255.474 29.6759 252.711 28.6709 250.024C27.6502 247.34 26.4174 244.741 24.9845 242.253C24.4312 241.302 23.9712 240.537 23.6355 240.021C23.4523 239.758 23.2922 239.479 23.1568 239.188C23.374 239.423 23.5695 239.677 23.7411 239.946C24.1079 240.45 24.6053 241.19 25.1834 242.141C26.6822 244.608 27.9515 247.207 28.9756 249.905C29.9917 252.608 30.7575 255.399 31.2633 258.242C31.4498 259.336 31.5741 260.219 31.6301 260.84C31.6774 261.157 31.6982 261.478 31.6922 261.798V261.798Z" fill="#263238"/>
<path d="M47.0722 258.683H21.5591V263.887H47.0722V258.683Z" fill="#455A64"/>
<path d="M23.9898 263.893L26.75 281.393H42.1673L44.7409 263.893H23.9898Z" fill="#455A64"/>
<path d="M45.5056 263.893C45.5056 263.98 40.6815 264.054 34.7259 264.054C28.7704 264.054 23.9525 263.98 23.9525 263.893C23.9525 263.806 28.7766 263.731 34.7259 263.731C40.6753 263.731 45.5056 263.8 45.5056 263.893Z" fill="#263238"/>
<path d="M156.616 268.481V281.386L182.651 281.262C182.464 278.645 168.172 273.423 168.172 273.423L168.458 268.45L156.616 268.481Z" fill="#455A64"/>
<g opacity="0.6">
<path d="M160.837 272.254C160.583 272.347 160.372 272.529 160.242 272.765C160.111 273.002 160.071 273.277 160.128 273.541C160.187 273.801 160.347 274.026 160.571 274.169C160.796 274.312 161.067 274.361 161.328 274.306C161.597 274.205 161.82 274.01 161.957 273.758C162.094 273.506 162.135 273.212 162.074 272.932C162.028 272.803 161.957 272.685 161.865 272.584C161.773 272.483 161.662 272.401 161.538 272.343C161.415 272.285 161.281 272.253 161.144 272.247C161.008 272.241 160.872 272.263 160.743 272.31" fill="white"/>
</g>
<path d="M156.616 281.386V279.329L181.482 279.621C181.482 279.621 182.775 280.398 182.657 281.262L156.616 281.386Z" fill="#263238"/>
<path d="M168.185 273.672C168.185 273.808 167.563 273.877 166.941 274.293C166.32 274.71 166.003 275.3 165.885 275.251C165.766 275.201 165.947 274.418 166.699 273.902C167.451 273.386 168.21 273.547 168.185 273.672Z" fill="#263238"/>
<path d="M171.598 274.865C171.598 274.996 171.082 275.232 170.659 275.804C170.236 276.376 170.124 276.979 170 276.973C169.876 276.966 169.782 276.214 170.317 275.512C170.852 274.809 171.591 274.741 171.598 274.865Z" fill="#263238"/>
<path d="M173.133 278.154C173.015 278.185 172.829 277.532 173.133 276.78C173.438 276.028 174.035 275.742 174.091 275.854C174.146 275.966 173.786 276.363 173.537 276.973C173.289 277.582 173.258 278.141 173.133 278.154Z" fill="#263238"/>
<path d="M167.93 269.998C167.88 270.122 167.308 269.948 166.581 269.998C165.853 270.047 165.338 270.308 165.25 270.19C165.163 270.072 165.711 269.569 166.55 269.531C167.389 269.494 167.992 269.892 167.93 269.998Z" fill="#263238"/>
<path d="M168.079 274.25C168.149 273.993 168.168 273.725 168.135 273.46C168.078 272.736 167.841 272.037 167.445 271.427C167.174 271.009 166.829 270.645 166.425 270.352C166.307 270.25 166.162 270.182 166.008 270.155C165.854 270.127 165.696 270.142 165.549 270.196C165.396 270.282 165.269 270.405 165.178 270.554C165.088 270.703 165.038 270.874 165.033 271.048C165.073 271.721 165.312 272.368 165.719 272.906C166.126 273.443 166.683 273.848 167.321 274.069C167.944 274.267 168.613 274.274 169.24 274.087C169.868 273.901 170.425 273.531 170.839 273.025C171.043 272.791 171.201 272.521 171.305 272.229C171.358 272.061 171.358 271.881 171.305 271.713C171.276 271.629 171.23 271.553 171.169 271.488C171.108 271.424 171.033 271.374 170.951 271.34C170.682 271.261 170.391 271.29 170.143 271.421C169.927 271.519 169.72 271.634 169.521 271.763C168.937 272.155 168.432 272.655 168.036 273.236C167.873 273.442 167.751 273.676 167.675 273.926C168.214 273.17 168.886 272.517 169.658 271.999C170.006 271.8 170.466 271.514 170.833 271.645C170.995 271.707 171.057 271.9 170.982 272.124C170.888 272.367 170.748 272.59 170.572 272.783C170.196 273.23 169.696 273.555 169.135 273.718C168.574 273.88 167.977 273.873 167.42 273.696C166.863 273.5 166.374 273.149 166.01 272.684C165.645 272.219 165.421 271.661 165.362 271.073C165.358 270.961 165.384 270.85 165.438 270.751C165.491 270.653 165.57 270.571 165.667 270.514C165.766 270.482 165.871 270.475 165.973 270.495C166.076 270.515 166.171 270.559 166.251 270.625C166.628 270.886 166.954 271.213 167.215 271.589C167.607 272.145 167.868 272.783 167.98 273.454C168.06 273.97 168.048 274.25 168.079 274.25Z" fill="#263238"/>
<path d="M147.11 270.346L147.552 273.672L147.26 281.163L137.499 281.399L137.151 273.672L138.258 269.078L147.11 270.346Z" fill="#455A64"/>
<path d="M142.435 280.597C142.373 280.597 142.516 278.309 142.746 275.481C142.976 272.652 143.219 270.352 143.275 270.346C143.331 270.339 143.194 272.64 142.964 275.468C142.734 278.297 142.491 280.597 142.435 280.597Z" fill="#263238"/>
<path d="M147.297 279.913L137.437 280.031V281.399L147.303 281.393L147.297 279.913Z" fill="#263238"/>
<path d="M137.462 275.605C137.462 275.605 137.53 275.45 137.711 275.213C137.969 274.874 138.261 274.562 138.581 274.281C139.052 273.855 139.581 273.499 140.154 273.224C141.155 272.734 142.287 272.579 143.383 272.782C144.479 272.984 145.48 273.534 146.24 274.349C146.527 274.668 146.768 275.026 146.955 275.412C147.034 275.548 147.087 275.698 147.11 275.854C146.807 275.374 146.466 274.918 146.091 274.492C145.115 273.53 143.8 272.99 142.429 272.988C141.055 273.029 139.738 273.543 138.699 274.442C137.897 275.108 137.499 275.642 137.462 275.605Z" fill="#263238"/>
<path d="M142.392 61.2491L142.317 94.9806L156.796 95.6706L157.219 87.4647C157.219 87.4647 162.36 88.4842 163.684 83.7347C164.536 80.6823 164.306 57.1026 164.306 57.1026L142.392 61.2491Z" fill="#B78876"/>
<path d="M166.195 59.4711C163.914 60.1239 163.417 63.8228 163.417 63.8228L159.842 71.7241C158.021 70.3005 155.571 70.3813 155.111 73.5891C154.775 75.9017 157.654 76.3679 157.654 76.3679C155.975 79.2214 154.844 81.5277 152.401 84.2382C149.777 87.1911 148.285 87.4833 145.426 87.5206H142.268C142.268 87.5206 140.72 82.5038 137.86 69.9648C134.689 56.052 151.139 57.8424 154.191 54.2927C159.158 48.5174 173.4 57.4134 166.195 59.4711Z" fill="#263238"/>
<path d="M170.211 56.4374C170.085 55.6954 169.699 55.0228 169.121 54.5407C168.543 54.0586 167.812 53.7986 167.06 53.8078C167.295 53.4113 167.383 52.9445 167.308 52.4897C167.233 52.0348 166.999 51.621 166.649 51.3211C166.286 51.0356 165.865 50.8322 165.415 50.7249C164.965 50.6175 164.498 50.6089 164.044 50.6994C163.138 50.8829 162.262 51.197 161.446 51.6319C161.141 50.7303 160.552 49.9517 159.767 49.4126C158.923 48.9179 157.954 48.6782 156.976 48.7226C152.531 48.7226 150.194 51.7625 147.807 54.8646C147.458 55.4425 146.96 55.9152 146.364 56.2323C145.931 56.3597 145.479 56.4102 145.028 56.3815C143.329 56.4353 141.675 56.936 140.233 57.8332C138.79 58.7304 137.609 59.9923 136.809 61.4915C135.255 64.4942 134.093 71.4382 138.121 75.7898L140.546 81.2045L163.752 62.8157C163.92 62.9027 165.375 63.6114 166.494 63.027C169.273 61.5599 168.104 59.123 168.104 59.123C168.328 58.9676 170.448 57.9294 170.211 56.4374Z" fill="#263238"/>
<path d="M148.733 74.5341C148.927 75.3805 148.899 76.2627 148.652 77.0953C148.521 77.9548 148.168 78.765 147.626 79.4452C147.527 79.3955 147.993 78.3635 148.291 77.0145C148.59 75.6655 148.627 74.5341 148.733 74.5341Z" fill="#455A64"/>
<path d="M150.486 72.8742C150.607 73.7039 150.561 74.5495 150.349 75.3609C150.257 76.188 149.996 76.9876 149.585 77.7108C149.646 76.8941 149.781 76.0846 149.989 75.2925C150.078 74.4725 150.244 73.6628 150.486 72.8742Z" fill="#455A64"/>
<path d="M155.497 67.3041C155.534 67.3538 155.124 67.6522 154.601 68.2614C153.936 69.0684 153.409 69.9801 153.041 70.9595C152.684 71.9499 152.396 72.9635 152.177 73.9932C152.116 74.4225 151.994 74.841 151.816 75.2365C151.79 74.7924 151.826 74.3467 151.922 73.9124C152.069 72.8515 152.33 71.8094 152.699 70.804C153.077 69.7843 153.661 68.8532 154.415 68.0687C154.71 67.7316 155.08 67.4695 155.497 67.3041V67.3041Z" fill="#455A64"/>
<path d="M157.523 63.5181C157.567 63.5181 157.716 63.8414 157.809 64.4258C157.914 65.1958 157.87 65.9788 157.679 66.7321C157.497 67.4868 157.165 68.1972 156.703 68.8209C156.348 69.2996 156.081 69.5296 156.025 69.4985C155.969 69.4674 156.914 68.336 157.324 66.6451C157.735 64.9542 157.411 63.5306 157.523 63.5181Z" fill="#455A64"/>
<path d="M140.247 71.9417C140.197 72.0349 139.756 71.8795 139.259 71.5997C138.761 71.32 138.395 71.0278 138.444 70.9346C138.494 70.8413 138.935 71.003 139.433 71.2827C139.93 71.5625 140.297 71.8546 140.247 71.9417Z" fill="#455A64"/>
<path d="M147.241 68.3423C147.297 68.8659 147.151 69.3912 146.831 69.8094C146.383 70.5492 145.78 70.9346 145.718 70.86C145.656 70.7854 146.109 70.3005 146.514 69.6167C146.918 68.9329 147.135 68.3174 147.241 68.3423Z" fill="#455A64"/>
<path d="M149.392 67.186C149.384 67.823 149.166 68.4396 148.77 68.9391C148.192 69.8218 147.465 70.2943 147.409 70.1824C147.353 70.0705 147.925 69.5607 148.466 68.709C148.745 68.1838 149.054 67.6753 149.392 67.186Z" fill="#455A64"/>
<path d="M160.084 53.0493C160.084 53.0493 159.811 52.8442 159.289 52.5458C158.541 52.1494 157.71 51.9363 156.864 51.9241C155.61 51.8908 154.373 52.2212 153.302 52.8752C152.016 53.72 150.972 54.8857 150.275 56.2571C149.74 57.2607 149.323 58.3224 149.031 59.4214L148.969 59.6327L148.776 59.527C147.779 59.0054 146.675 58.7223 145.55 58.7002C144.657 58.6799 143.767 58.8145 142.92 59.0981C142.167 59.3777 141.445 59.7383 140.769 60.1736C140.909 60.0073 141.072 59.8627 141.254 59.7446C141.743 59.3887 142.278 59.1021 142.846 58.893C143.709 58.5641 144.626 58.3976 145.55 58.4018C146.73 58.3989 147.894 58.6781 148.944 59.2162L148.689 59.3281C148.977 58.2019 149.394 57.1129 149.933 56.083C150.66 54.6555 151.757 53.449 153.109 52.5893C154.234 51.9192 155.532 51.5969 156.839 51.663C157.72 51.7008 158.576 51.9641 159.326 52.4277C159.526 52.5542 159.711 52.7022 159.879 52.869C160.035 52.9809 160.091 53.0431 160.084 53.0493Z" fill="#455A64"/>
<path d="M167.7 54.8895C167.669 54.8895 168.098 54.7776 168.527 55.2625C168.65 55.4072 168.744 55.5753 168.802 55.7568C168.859 55.9384 168.88 56.1296 168.862 56.3193C168.825 56.5721 168.729 56.8127 168.582 57.022C168.435 57.2314 168.242 57.4037 168.017 57.5253C167.483 57.8281 166.853 57.9149 166.258 57.7678C165.602 57.5953 164.988 57.2953 164.449 56.885C163.883 56.4335 163.289 56.0183 162.671 55.6417C162.002 55.2799 161.28 55.0261 160.532 54.8895C159.079 54.6278 157.584 54.7303 156.18 55.1879C155.028 55.5677 153.94 56.1211 152.954 56.829C151.263 58.0413 150.43 59.0608 150.374 59.0049C150.541 58.747 150.735 58.5074 150.952 58.29C151.521 57.6767 152.146 57.1169 152.817 56.6177C153.808 55.8616 154.914 55.2697 156.093 54.8646C157.553 54.3697 159.115 54.2542 160.632 54.5289C161.417 54.6734 162.175 54.942 162.876 55.3246C163.501 55.6997 164.101 56.115 164.672 56.568C165.172 56.9613 165.745 57.2527 166.357 57.4258C166.882 57.57 167.441 57.5101 167.924 57.258C168.119 57.1585 168.289 57.0163 168.421 56.8419C168.554 56.6675 168.645 56.4655 168.688 56.2509C168.733 55.9184 168.646 55.5815 168.446 55.3122C168.255 55.0873 167.991 54.9375 167.7 54.8895Z" fill="#455A64"/>
<path d="M235.15 80.7817C234.603 80.2968 227.23 83.3865 227.23 83.3865C227.23 83.3865 221.729 87.7382 219.466 90.2559L218.067 91.4184L197.142 107.687L171.405 96.9823L165.81 111.337C165.81 111.337 194.705 122.844 199.106 120.873C203.887 118.734 221.698 100.091 221.741 100.028L224.315 97.5418C224.315 97.5418 225.676 97.5418 226.708 97.4548C227.74 97.3677 230.761 95.3846 230.761 95.3846C231.048 94.8328 231.245 94.239 231.346 93.6253C231.409 93.3809 231.388 93.1224 231.287 92.8912C231.185 92.6601 231.009 92.4698 230.786 92.3509C230.891 91.8731 230.908 91.3801 230.836 90.8962C230.718 90.0756 229.593 89.1245 229.593 89.1245C229.943 88.7671 230.183 88.3158 230.283 87.8252C230.531 86.874 229.307 85.9602 229.307 85.9602C229.307 85.9602 233.59 83.0508 234.628 82.5348C235.666 82.0188 235.697 81.2666 235.15 80.7817Z" fill="#B78876"/>
<path d="M175.191 227.824C175.278 226.879 175.321 226.152 175.321 225.698L178.231 179.303C178.231 179.303 175.788 165.751 174.631 162.158L164.243 158.135L150.399 163.525C150.312 162.412 150.256 161.722 150.256 161.722L129.884 168.772C129.884 168.772 129.356 182.679 129.884 186.912C130.058 188.274 130.586 191.786 131.233 195.926C131.233 195.926 131.892 204.922 132.029 205.425C132.52 207.259 132.65 211.754 132.65 216.255C132.65 221.974 132.961 228.781 133.322 232.014C133.682 235.247 133.85 270.831 133.85 270.831H148.894L150.828 214.16C151.151 208.086 151.636 198.798 151.947 192.078L155.478 213.003C155.478 213.768 157.629 225.735 157.629 225.735C157.132 229.501 156.825 233.29 156.709 237.087C156.46 247.655 155.223 270.831 155.223 270.831H169.944C169.944 270.831 174.37 237.335 175.228 227.824H175.191Z" fill="#263238"/>
<path d="M177.752 176.524C177.269 176.342 176.811 176.097 176.391 175.797C175.346 175.127 174.372 174.354 173.481 173.49C172.591 172.628 171.787 171.681 171.082 170.662C170.764 170.255 170.506 169.805 170.317 169.325C170.658 169.704 170.974 170.105 171.262 170.525C172.012 171.495 172.828 172.411 173.705 173.267C174.583 174.114 175.52 174.897 176.509 175.61C176.945 175.885 177.36 176.19 177.752 176.524V176.524Z" fill="#455A64"/>
<path d="M151.468 184.954C151.35 184.816 151.254 184.661 151.182 184.494C150.951 184.058 150.744 183.609 150.561 183.151C149.931 181.642 149.47 180.068 149.187 178.458C148.91 176.847 148.81 175.21 148.888 173.577C148.926 172.956 148.975 172.452 149.031 172.104C149.042 171.921 149.082 171.74 149.149 171.57C149.199 171.57 149.149 172.347 149.118 173.584C149.1 175.198 149.229 176.811 149.504 178.402C149.778 179.992 150.194 181.554 150.747 183.07C151.188 184.233 151.512 184.929 151.468 184.954Z" fill="#455A64"/>
<path d="M153.656 202.423C153.565 202.161 153.5 201.89 153.464 201.615C153.356 201.026 153.219 200.286 153.053 199.395C152.73 197.449 152.295 194.888 151.81 192.053C150.977 186.85 150.411 183.307 150.15 181.659C150.488 182.633 150.726 183.639 150.859 184.662C151.22 186.527 151.667 189.132 152.14 191.997C152.612 194.863 153.004 197.474 153.277 199.358C153.395 200.253 153.501 200.999 153.582 201.596C153.637 201.868 153.662 202.145 153.656 202.423V202.423Z" fill="#455A64"/>
<path d="M118.153 125.038C118.153 125.038 116.17 139.019 115.797 143.918C115.573 146.871 118.57 150.756 120.857 151.073C123.145 151.39 130.854 151.819 130.854 151.819L131.475 143.048L131.277 141.301L128.883 140.853L129.604 126.94L118.153 125.038Z" fill="#B78876"/>
<path d="M129.306 127.413C129.367 127.661 129.399 127.916 129.399 128.171C129.436 128.662 129.461 129.371 129.48 130.254C129.523 132.007 129.48 134.438 129.331 137.092C129.182 139.747 128.964 142.19 128.796 143.93C128.703 144.801 128.628 145.509 128.566 145.994C128.552 146.249 128.508 146.502 128.436 146.746C128.407 146.492 128.407 146.236 128.436 145.982C128.467 145.422 128.51 144.738 128.56 143.905C128.678 142.084 128.827 139.703 128.995 137.067C129.163 134.431 129.225 131.982 129.244 130.229C129.244 129.408 129.244 128.712 129.244 128.153C129.239 127.904 129.259 127.656 129.306 127.413V127.413Z" fill="#AA6550"/>
<g opacity="0.3">
<path d="M130.064 169.027C133.981 170.482 138.27 170.6 142.429 170.239C146.588 169.879 150.704 169.039 154.862 168.648C161.165 168.059 167.522 168.478 173.693 169.891C174.123 170.022 174.576 170.064 175.023 170.015C175.245 169.987 175.454 169.892 175.621 169.744C175.788 169.595 175.907 169.4 175.962 169.182C176.074 168.486 175.309 168.001 174.662 167.734C167.547 164.791 159.898 163.36 152.2 163.531C144.502 163.703 136.924 165.472 129.946 168.729" fill="black"/>
</g>
<path d="M190.03 103.336L167.949 92.3447C164.466 91.9361 160.959 91.7824 157.455 91.8846H142.839C142.839 91.8846 125.135 97.1066 122.206 101.925L114.616 124.677L129.623 126.94L131.488 143.29C131.488 143.29 129.623 162.22 129.623 164.967C129.582 166.24 129.659 167.514 129.853 168.772C129.853 168.772 159.879 164.209 167.271 166.615C174.662 169.021 176.658 168.772 176.658 168.772C176.658 168.772 176.036 160.914 175.495 156.339L173.792 133.524L172.549 116.117L186.443 120.369L190.03 103.336Z" fill="#455A64"/>
<path d="M129.486 127.121C129.43 127.121 129.281 126.182 128.952 124.665C128.513 122.692 127.931 120.754 127.211 118.865C126.476 116.962 125.616 115.11 124.637 113.32L123.73 111.691C123.601 111.498 123.499 111.289 123.425 111.069C123.587 111.236 123.729 111.422 123.848 111.622C124.103 111.989 124.469 112.53 124.849 113.214C125.898 114.981 126.796 116.834 127.534 118.753C128.261 120.655 128.815 122.619 129.188 124.621C129.325 125.386 129.412 126.008 129.455 126.443C129.493 126.667 129.504 126.894 129.486 127.121Z" fill="#263238"/>
<path d="M157.803 133.58C157.791 133.685 157.764 133.787 157.722 133.884L157.442 134.724C157.318 135.09 157.163 135.532 156.957 136.041C156.752 136.551 156.535 137.136 156.249 137.757C155.708 139.001 155.005 140.505 154.123 142.109C153.24 143.713 152.196 145.416 151.014 147.144C149.833 148.873 148.528 150.433 147.353 151.813C146.178 153.193 145.003 154.356 143.996 155.301C143.505 155.785 143.026 156.19 142.622 156.544C142.218 156.898 141.851 157.215 141.553 157.458L140.856 158.005C140.778 158.074 140.693 158.134 140.602 158.185C140.602 158.185 140.67 158.098 140.819 157.955L141.472 157.333C141.758 157.085 142.094 156.768 142.504 156.388C142.914 156.009 143.362 155.599 143.84 155.108C144.823 154.151 145.942 152.957 147.129 151.589C148.316 150.222 149.547 148.643 150.753 146.933C151.959 145.223 152.991 143.514 153.862 141.96C154.732 140.406 155.472 138.914 156.037 137.664C156.336 137.042 156.566 136.464 156.783 135.967C157.001 135.47 157.181 135.034 157.324 134.674C157.467 134.313 157.567 134.052 157.66 133.853C157.696 133.756 157.744 133.665 157.803 133.58Z" fill="#263238"/>
<path d="M168.004 93.8491C167.423 94.6797 167.027 95.6251 166.842 96.6217C166.655 97.7017 166.655 98.8056 166.842 99.8855C167.083 101.215 167.394 102.53 167.774 103.827C168.539 106.612 169.341 109.092 169.956 110.883C170.249 111.728 170.491 112.437 170.69 113.003C170.793 113.258 170.872 113.522 170.926 113.792C170.781 113.556 170.66 113.306 170.566 113.046C170.361 112.561 170.068 111.853 169.733 110.964C169.061 109.192 168.216 106.705 167.451 103.914C167.079 102.612 166.783 101.29 166.562 99.9539C166.38 98.8429 166.396 97.7082 166.612 96.6031C166.764 95.8573 167.055 95.1467 167.47 94.5081C167.606 94.2577 167.788 94.0344 168.004 93.8491V93.8491Z" fill="#263238"/>
<path d="M126.341 117.802C126.013 118.156 125.609 118.43 125.159 118.604C124.103 119.089 122.928 119.253 121.779 119.078C120.63 118.902 119.557 118.394 118.694 117.615C118.318 117.318 118.016 116.937 117.811 116.503C117.855 116.465 118.178 116.907 118.843 117.441C119.709 118.141 120.744 118.598 121.845 118.765C122.945 118.932 124.069 118.803 125.103 118.392C125.868 118.082 126.309 117.758 126.341 117.802Z" fill="white"/>
<path d="M168.657 107.538C168.614 107.703 168.553 107.864 168.477 108.017C168.34 108.328 168.129 108.775 167.824 109.335C166.949 110.922 165.843 112.369 164.542 113.63C162.597 115.518 160.171 116.836 157.529 117.441C155.972 117.798 154.362 117.868 152.78 117.646C151.087 117.377 149.457 116.797 147.974 115.937C144.922 114.233 142.342 112.076 139.52 111.044C137.023 110.121 134.307 109.972 131.724 110.615C129.981 111.034 128.336 111.787 126.881 112.835C125.862 113.587 125.383 114.115 125.358 114.078C125.794 113.58 126.279 113.128 126.807 112.729C128.611 111.361 130.729 110.465 132.967 110.121C135.205 109.777 137.493 109.996 139.625 110.758C142.516 111.803 145.115 113.966 148.13 115.645C149.577 116.497 151.168 117.079 152.823 117.36C154.37 117.578 155.943 117.515 157.467 117.174C160.062 116.592 162.451 115.318 164.38 113.487C165.686 112.258 166.808 110.847 167.712 109.297C168.029 108.75 168.266 108.309 168.415 108.011C168.483 107.847 168.564 107.689 168.657 107.538Z" fill="white"/>
<path d="M182.483 99.5622C182.606 99.7907 182.702 100.033 182.769 100.283C182.974 100.956 183.095 101.651 183.13 102.353C183.25 104.708 182.505 107.025 181.035 108.869C180.18 109.814 179.253 110.691 178.262 111.492C177.484 112.145 176.849 112.951 176.397 113.86C176.091 114.473 175.948 115.154 175.98 115.837C176.018 116.322 176.123 116.583 176.092 116.59C176.061 116.596 176.049 116.534 175.999 116.409C175.929 116.229 175.881 116.041 175.856 115.85C175.771 115.138 175.885 114.417 176.186 113.767C176.623 112.815 177.259 111.967 178.051 111.281C179.015 110.476 179.923 109.606 180.767 108.676C182.187 106.886 182.937 104.656 182.887 102.372C182.839 101.425 182.704 100.484 182.483 99.5622Z" fill="white"/>
<path d="M146.569 151.975C146.374 152.079 146.165 152.157 145.948 152.205C145.348 152.376 144.738 152.505 144.12 152.59C143.189 152.745 142.236 152.689 141.329 152.429C140.791 152.258 140.294 151.978 139.868 151.608C139.44 151.201 139.041 150.765 138.674 150.302C138.315 149.862 137.896 149.473 137.431 149.146C136.988 148.857 136.51 148.628 136.007 148.462C135.147 148.187 134.237 148.1 133.34 148.207C132.732 148.274 132.14 148.442 131.587 148.705C131.388 148.816 131.18 148.912 130.966 148.991C131.128 148.828 131.318 148.693 131.525 148.593C132.075 148.275 132.681 148.064 133.309 147.971C134.24 147.822 135.193 147.888 136.094 148.164C136.629 148.328 137.137 148.566 137.605 148.873C138.102 149.207 138.546 149.613 138.923 150.079C139.28 150.529 139.666 150.954 140.079 151.353C140.474 151.7 140.932 151.966 141.428 152.136C142.295 152.393 143.205 152.467 144.101 152.354C145.612 152.174 146.557 151.919 146.569 151.975Z" fill="white"/>
<path d="M175.16 150.651C175.101 150.715 175.034 150.771 174.961 150.818C174.762 150.968 174.554 151.105 174.339 151.229C173.567 151.7 172.729 152.054 171.853 152.279C170.536 152.618 169.165 152.698 167.818 152.516C166.156 152.291 164.578 151.649 163.23 150.651C161.95 149.616 160.725 148.514 159.562 147.35C158.611 146.425 157.509 145.668 156.305 145.112C155.496 144.737 154.616 144.542 153.725 144.54C153.103 144.54 152.743 144.645 152.736 144.608C152.816 144.571 152.899 144.544 152.985 144.527C153.225 144.462 153.471 144.423 153.719 144.409C154.637 144.368 155.554 144.536 156.398 144.9C157.642 145.44 158.78 146.196 159.761 147.132C160.899 148.139 162.03 149.364 163.423 150.389C164.728 151.349 166.251 151.968 167.855 152.192C169.167 152.382 170.503 152.33 171.797 152.037C172.662 151.831 173.498 151.516 174.283 151.098C174.566 150.931 174.859 150.782 175.16 150.651Z" fill="white"/>
<path d="M228.001 62.0697C223.486 59.9099 219.545 56.7141 216.499 52.7426C213.452 48.7711 211.387 44.1363 210.472 39.2156C209.556 34.2949 209.815 29.2275 211.229 24.4261C212.642 19.6246 215.17 15.225 218.606 11.5855C222.042 7.94593 226.289 5.16943 231.001 3.4821C235.713 1.79477 240.758 1.24433 245.723 1.87561C250.688 2.50689 255.434 4.30203 259.574 7.11484C263.714 9.92764 267.131 13.6786 269.547 18.0621V18.0621C272.801 23.9571 274.097 30.7333 273.25 37.413C272.403 44.0928 269.456 50.3307 264.833 55.2268C260.211 60.1229 254.153 63.4241 247.533 64.654C240.913 65.8839 234.074 64.9789 228.001 62.0697V62.0697ZM254.497 6.65457C248.119 3.61045 240.864 2.94478 234.04 4.77758C227.215 6.61038 221.27 10.8211 217.276 16.6504C213.282 22.4798 211.502 29.5444 212.256 36.5704C213.011 43.5964 216.251 50.1216 221.393 54.9696C226.534 59.8175 233.238 62.6692 240.296 63.0105C247.354 63.3518 254.302 61.1603 259.887 56.831C265.472 52.5017 269.327 46.3196 270.756 39.3992C272.185 32.4788 271.095 25.2754 267.682 19.0878C264.693 13.6682 260.082 9.32041 254.497 6.65457V6.65457Z" fill="#263238"/>
<path d="M281.638 96.8456C280.746 97.3943 279.672 97.5669 278.653 97.3257C277.633 97.0845 276.751 96.4492 276.199 95.5587L255.417 61.8708C255.322 61.7182 255.292 61.5344 255.332 61.3595C255.373 61.1847 255.482 61.0332 255.634 60.9383L260.067 58.203C260.218 58.1107 260.398 58.0805 260.571 58.1188C260.744 58.157 260.895 58.2607 260.993 58.4081L282.851 91.2506C283.151 91.6936 283.359 92.1929 283.46 92.7184C283.562 93.2439 283.556 93.7846 283.443 94.3078C283.33 94.8309 283.111 95.3256 282.801 95.7618C282.491 96.1981 282.095 96.5668 281.638 96.8456V96.8456Z" fill="#263238"/>
<path d="M228.766 60.4658C224.248 58.3071 220.304 55.1117 217.255 51.1397C214.206 47.1677 212.139 42.5317 211.221 37.6092C210.304 32.6868 210.563 27.6173 211.976 22.8137C213.389 18.0102 215.917 13.6084 219.355 9.96722C222.792 6.32599 227.04 3.54827 231.754 1.86038C236.468 0.172497 241.515 -0.377808 246.482 0.254306C251.449 0.886421 256.196 2.68307 260.338 5.49787C264.479 8.31267 267.896 12.066 270.312 16.452V16.452C273.563 22.3474 274.858 29.123 274.01 35.8019C273.162 42.4808 270.215 48.7179 265.594 53.6138C260.973 58.5097 254.916 61.8115 248.297 63.0429C241.678 64.2744 234.839 63.372 228.766 60.4658V60.4658ZM255.261 5.0507C248.884 2.00658 241.629 1.34091 234.804 3.17371C227.98 5.00651 222.035 9.21718 218.04 15.0466C214.046 20.876 212.266 27.9405 213.021 34.9665C213.776 41.9926 217.016 48.5178 222.157 53.3657C227.298 58.2137 234.003 61.0653 241.061 61.4066C248.119 61.7479 255.067 59.5564 260.652 55.2271C266.237 50.8979 270.091 44.7157 271.521 37.7953C272.95 30.8749 271.86 23.6715 268.447 17.484C265.458 12.0643 260.847 7.71654 255.261 5.0507V5.0507Z" fill="#455A64"/>
<path d="M255.825 59.6479L261.396 56.211L283.496 92.0357C283.929 92.7373 284.065 93.5821 283.875 94.3843C283.685 95.1864 283.184 95.8802 282.483 96.3131L282.16 96.5122C281.458 96.945 280.614 97.0813 279.811 96.8913C279.009 96.7012 278.315 96.2003 277.883 95.4987L255.783 59.674L255.825 59.6479Z" fill="#455A64"/>
<path d="M218.745 24.2477C218.774 23.9158 218.832 23.5872 218.919 23.2655C218.992 22.8825 219.09 22.5047 219.211 22.134C219.352 21.6348 219.518 21.143 219.708 20.6607L220.025 19.8214C220.143 19.5293 220.299 19.2433 220.442 18.9325C220.722 18.3108 221.101 17.6891 221.48 17.0364C222.362 15.6363 223.383 14.3284 224.526 13.1323C225.691 11.9598 226.97 10.9061 228.343 9.98672C228.946 9.59308 229.569 9.22998 230.208 8.8988C230.507 8.74339 230.792 8.58176 231.078 8.45121L231.911 8.09686C232.386 7.8927 232.872 7.71424 233.366 7.56223C233.734 7.42986 234.11 7.32188 234.491 7.23896C234.812 7.14812 235.138 7.07957 235.467 7.03381C235.161 7.16324 234.845 7.26923 234.522 7.35086C234.149 7.45384 233.781 7.57838 233.422 7.72386C232.938 7.8892 232.463 8.08011 231.999 8.29579L231.184 8.66257C230.898 8.79312 230.618 8.96097 230.326 9.11639C229.705 9.421 229.133 9.81887 228.492 10.2167C227.152 11.1304 225.903 12.1713 224.762 13.3251C223.634 14.5045 222.62 15.7888 221.735 17.1607C221.356 17.7824 220.97 18.404 220.684 19.0257C220.541 19.3241 220.38 19.6039 220.255 19.8898L219.907 20.7166C219.671 21.2326 219.528 21.7299 219.373 22.1589C219.239 22.523 219.127 22.8945 219.037 23.2717C218.966 23.6043 218.868 23.9307 218.745 24.2477V24.2477Z" fill="#E0E0E0"/>
</svg>
